<svg xmlns="http://www.w3.org/2000/svg" width="193.5" height="319.811" viewBox="85.5 62.689 193.5 319.811"><defs><clipPath id="a"><path d="M85.5 62.689H279V382.5H85.5Z"/></clipPath></defs><g fill="none"><title>Chalice (1)</title><g clip-path="url(#a)"><title>Layer 2</title><ellipse cx="182.357" cy="375.498" fill="#FFFFFF" rx="67.683" ry="4.597"/><ellipse cx="182.357" cy="375.498" stroke="black" stroke-linecap="round" stroke-linejoin="round" stroke-width="2" rx="67.683" ry="4.597"/><path fill="#FFFFFF" d="M210.468 327.158v-.087c-7.31-10.455-7.31-24.846 0-35.3v-1.151h-56.006v.829c7.481 10.401 7.612 24.842.393 35.385-6.403 2.475-12.403 5.868-17.703 10.178-12.352 10.045-18.578 23.186-18.679 36.351h.601c-2.638.793 3.388 1.625 18.078 2.235 24.907 1.033 65.289 1.033 90.196 0 14.69-.61 20.716-1.442 18.078-2.235h.6c-.1-13.165-6.326-26.306-18.678-36.35-5.072-4.126-10.786-7.41-16.88-9.855"/><path stroke="black" stroke-linecap="round" stroke-linejoin="round" stroke-width="2" d="M210.468 327.158v-.087c-7.31-10.455-7.31-24.846 0-35.3v-1.151h-56.006v.829c7.481 10.401 7.612 24.842.393 35.385-6.403 2.475-12.403 5.868-17.703 10.178-12.352 10.045-18.578 23.186-18.679 36.351h.601c-2.638.793 3.388 1.625 18.078 2.235 24.907 1.033 65.289 1.033 90.196 0 14.69-.61 20.716-1.442 18.078-2.235h.6c-.1-13.165-6.326-26.306-18.678-36.35-5.072-4.126-10.786-7.41-16.88-9.855"/><path fill="#FFFFFF" d="M150.041 258.69c-6.278 0-11.368 5.09-11.368 11.369 0 6.278 5.09 11.367 11.368 11.367h64.418c6.278 0 11.368-5.09 11.368-11.367 0-6.279-5.09-11.368-11.368-11.368Z"/><path stroke="black" stroke-linecap="round" stroke-linejoin="round" stroke-width="2" d="M150.041 258.69zc-6.278 0-11.368 5.09-11.368 11.369 0 6.278 5.09 11.367 11.368 11.367h64.418c6.278 0 11.368-5.09 11.368-11.367 0-6.279-5.09-11.368-11.368-11.368Z"/><path fill="#FFFFFF" d="M155.27 258.69h54.176a4.597 4.597 0 0 0 0-9.193h-54.177a4.597 4.597 0 0 0 0 9.194"/><path stroke="black" stroke-linecap="round" stroke-linejoin="round" stroke-width="2" d="M155.27 258.69h54.176a4.597 4.597 0 0 0 0-9.193h-54.177a4.597 4.597 0 0 0 0 9.194"/><path fill="#FFFFFF" d="M155.27 290.62h54.176a4.597 4.597 0 0 0 0-9.194h-54.177a4.597 4.597 0 1 0 0 9.194"/><path stroke="black" stroke-linecap="round" stroke-linejoin="round" stroke-width="2" d="M155.27 290.62h54.176a4.597 4.597 0 0 0 0-9.194h-54.177a4.597 4.597 0 1 0 0 9.194"/><path fill="#FFFFFF" d="M154.462 248.078v1.42h56.006v-1.831c-7.31-13.345-7.31-31.714 0-45.059v-1.469h-56.006v1.058c7.614 13.513 7.614 32.368 0 45.881"/><path stroke="black" stroke-linecap="round" stroke-linejoin="round" stroke-width="2" d="M154.462 248.078v1.42h56.006v-1.831c-7.31-13.345-7.31-31.714 0-45.059v-1.469h-56.006v1.058c7.614 13.513 7.614 32.368 0 45.881"/><path fill="#FFFFFF" d="M90.046 73.304c.146 33.944 9.147 67.822 27.005 93.72 36.008 52.223 94.39 52.223 130.398 0 17.858-25.898 26.86-59.776 27.005-93.72Z"/><path stroke="black" stroke-linecap="round" stroke-linejoin="round" stroke-width="2" d="M90.046 73.304c.146 33.944 9.147 67.822 27.005 93.72 36.008 52.223 94.39 52.223 130.398 0 17.858-25.898 26.86-59.776 27.005-93.72Z"/><ellipse cx="182.25" cy="72.673" fill="#FFFFFF" rx="92.206" ry="7.579"/><ellipse cx="182.25" cy="72.673" stroke="black" stroke-linecap="round" stroke-linejoin="round" stroke-width="2" rx="92.206" ry="7.579"/><path stroke="black" stroke-linecap="round" stroke-linejoin="round" d="m182.25 75.84-88.591-1.154c6.35-3.295 38.84-5.83 79.215-6.178z"/><path stroke="black" stroke-linecap="round" stroke-linejoin="round" d="m182.508 79.039-80.557-2.675c10.219-2.079 31.722-3.643 58.07-4.223z"/><path stroke="black" stroke-linecap="round" stroke-linejoin="round" d="m185.95 82.454-66.556-4.59c9.143-.896 20.821-1.594 34.01-2.032z"/></g></g></svg>