<svg xmlns="http://www.w3.org/2000/svg" width="238.5" height="342" viewBox="63 67.5 238.5 342"><defs><clipPath id="a"><path d="M63 67.5h238.5v289.385L268.477 409.5H63Z"/></clipPath></defs><g fill="none"><title>Lizard Rampant (1)</title><g clip-path="url(#a)"><title>Art</title><title>path26</title><path fill="#FFFFFF" d="M159.073 138.63a11.449 11.449 0 0 0-17.014-15.083 43.95 43.95 0 0 0-11.767 15.557 104 104 0 0 1-29.323-4.055 4.76 4.76 0 0 1-4.446-3.31 17.8 17.8 0 0 1 3.978-4.2 2.703 2.703 0 1 0-2.693-2.766 15.9 15.9 0 0 1-3.983 4.492 1.69 1.69 0 0 1-2.373-2.32 22.6 22.6 0 0 0 4.614-12.581 3.465 3.465 0 1 0-5.26-.02 12.88 12.88 0 0 1-1.394 8.473 1.248 1.248 0 0 1-2.283-.758 87 87 0 0 1-4.891-15.564 2.952 2.952 0 1 0-4.525 1.053 46.5 46.5 0 0 0 3.587 14.994 2.16 2.16 0 0 1-1.567 3.676 6.37 6.37 0 0 1-3.776-1.741l-3.952-3.256a2.97 2.97 0 1 0-2.495 3.574 37 37 0 0 1 6.753 5.097 3.39 3.39 0 0 1 1.108 4.32 9.387 9.387 0 0 0 13.53 8.957 118.2 118.2 0 0 0 35.892 11.798 10.04 10.04 0 0 0 12.138-.097 77.8 77.8 0 0 0 20.142-16.24"/><path stroke="black" stroke-linecap="round" stroke-linejoin="round" stroke-width="1.228" d="M159.073 138.63a11.449 11.449 0 0 0-17.014-15.083 43.95 43.95 0 0 0-11.767 15.557 104 104 0 0 1-29.323-4.055 4.76 4.76 0 0 1-4.446-3.31 17.8 17.8 0 0 1 3.978-4.2 2.703 2.703 0 1 0-2.693-2.766 15.9 15.9 0 0 1-3.983 4.492 1.69 1.69 0 0 1-2.373-2.32 22.6 22.6 0 0 0 4.614-12.581 3.465 3.465 0 1 0-5.26-.02 12.88 12.88 0 0 1-1.394 8.473 1.248 1.248 0 0 1-2.283-.758 87 87 0 0 1-4.891-15.564 2.952 2.952 0 1 0-4.525 1.053 46.5 46.5 0 0 0 3.587 14.994 2.16 2.16 0 0 1-1.567 3.676 6.37 6.37 0 0 1-3.776-1.741l-3.952-3.256a2.97 2.97 0 1 0-2.495 3.574 37 37 0 0 1 6.753 5.097 3.39 3.39 0 0 1 1.108 4.32 9.387 9.387 0 0 0 13.53 8.957 118.2 118.2 0 0 0 35.892 11.798 10.04 10.04 0 0 0 12.138-.097 77.8 77.8 0 0 0 20.142-16.24"/><title>path31</title><path fill="#FFFFFF" d="M190.296 342.07a11.079 11.079 0 0 0-12.584-18.05 72 72 0 0 0-20.12 24.843 14.385 14.385 0 0 0 2.556 16.252 41.4 41.4 0 0 1 5.531 7.65 2.79 2.79 0 0 1-2.892 4.483 17.8 17.8 0 0 1-4.712-3.355 2.703 2.703 0 1 0-2.365 3.052 15.9 15.9 0 0 1 4.997 3.319 1.69 1.69 0 0 1-1.967 2.672 22.6 22.6 0 0 0-13.096-2.817 3.465 3.465 0 1 0 .713 5.211 12.88 12.88 0 0 1 8.58.201 1.248 1.248 0 0 1-.434 2.366 87 87 0 0 1-14.732 7.01 2.952 2.952 0 1 0 1.673 4.334 46.5 46.5 0 0 0 14.354-5.638 2.16 2.16 0 0 1 3.852 1.04 6.37 6.37 0 0 1-1.198 3.981l-2.669 4.368a2.97 2.97 0 1 0 3.881 1.972 37 37 0 0 1 4.113-7.396 3.39 3.39 0 0 1 4.118-1.699 10.178 10.178 0 0 0 10.678-13.983l-3.645-18.942a9.27 9.27 0 0 1 2.78-8.763Z"/><path stroke="black" stroke-linecap="round" stroke-linejoin="round" stroke-width="1.228" d="M190.296 342.07a11.079 11.079 0 0 0-12.584-18.05 72 72 0 0 0-20.12 24.843 14.385 14.385 0 0 0 2.556 16.252 41.4 41.4 0 0 1 5.531 7.65 2.79 2.79 0 0 1-2.892 4.483 17.8 17.8 0 0 1-4.712-3.355 2.703 2.703 0 1 0-2.365 3.052 15.9 15.9 0 0 1 4.997 3.319 1.69 1.69 0 0 1-1.967 2.672 22.6 22.6 0 0 0-13.096-2.817 3.465 3.465 0 1 0 .713 5.211 12.88 12.88 0 0 1 8.58.201 1.248 1.248 0 0 1-.434 2.366 87 87 0 0 1-14.732 7.01 2.952 2.952 0 1 0 1.673 4.334 46.5 46.5 0 0 0 14.354-5.638 2.16 2.16 0 0 1 3.852 1.04 6.37 6.37 0 0 1-1.198 3.981l-2.669 4.368a2.97 2.97 0 1 0 3.881 1.972 37 37 0 0 1 4.113-7.396 3.39 3.39 0 0 1 4.118-1.699 10.178 10.178 0 0 0 10.678-13.983l-3.645-18.942a9.27 9.27 0 0 1 2.78-8.763Z"/><title>path36</title><path fill="#FFFFFF" d="M243.324 348.382a34.75 34.75 0 0 1-23.415-10.575q-.419-.557-.807-1.135l-.186.065c-10.85-12.224-11.713-30.356-2.074-43.556 36.75-44.34 33.31-109.463-7.906-149.684a127.15 127.15 0 0 1-29.865-42.22 49.41 49.41 0 0 1-37.914 20.758q.039.94.093 1.877c-2.517 2.254-3.857 5.338-3.667 8.438s1.891 5.906 4.655 7.676l-.36.186c-2.065 2.704-2.787 6.018-1.966 9.023.822 3.006 3.098 5.383 6.2 6.474-1.58 2.936-1.776 6.25-.534 9.052 1.242 2.804 3.794 4.81 6.973 5.48-1.113 2.81-.947 5.816.454 8.218s3.898 3.958 6.825 4.256q-.25.21-.496.425c-1.294 2.835-1.265 5.941.08 8.458 1.346 2.517 3.863 4.176 6.855 4.518l-.3.295c-1.59 2.244-2.108 4.932-1.419 7.356.689 2.425 2.516 4.34 4.999 5.244-1.68 1.892-2.439 4.29-2.086 6.59.352 2.301 1.782 4.285 3.93 5.453-2.109 3.878-1.915 8.368.513 11.923l-.027.005c-2.297 3.222-2.615 7.234-.846 10.657q-.395.075-.786.159c-3.069 3.63-3.817 8.415-1.98 12.67l.512.044-.027.093-.48.114c-3.197 2.838-4.48 6.999-3.4 11.023q-.225.445-.442.895c-3.108 2.275-4.699 5.856-4.267 9.604-2.8 2.808-3.789 6.724-2.63 10.422l.606.104q-.288.047-.573.098c-2.186 3.974-1.984 8.59.534 12.223l.415-.005q-.088.04-.18.07c-2.622 4.358-1.643 9.571 2.34 12.47-1.62 4.777.507 9.612 5.048 11.47l.011-.006.017.033-.038.038c-.942 5.117 1.854 9.765 6.7 11.137l-.01.017c.47 5.383 4.62 9.218 9.865 9.118l-.021.054c1.633 5.027 6.452 7.746 11.42 6.445 2.177 4.688 7.147 6.813 11.88 5.08l.038-.3c2.017 2.538 5.063 3.723 8.082 3.143a45.938 45.938 0 0 0 69.262-45.771 69.3 69.3 0 0 0-7.344-16.949 61.36 61.36 0 0 1 15.819-64.39 40.88 40.88 0 0 0-42.929-62.698 36.64 36.64 0 0 1 24.85 63.828c-19.6 21.42-22.597 53.248-7.339 77.95a26.677 26.677 0 0 1-22.662 36.56"/><path stroke="black" stroke-linecap="round" stroke-linejoin="round" stroke-width="1.228" d="M243.324 348.382a34.75 34.75 0 0 1-23.415-10.575q-.419-.557-.807-1.135l-.186.065c-10.85-12.224-11.713-30.356-2.074-43.556 36.75-44.34 33.31-109.463-7.906-149.684a127.15 127.15 0 0 1-29.865-42.22 49.41 49.41 0 0 1-37.914 20.758q.039.94.093 1.877c-2.517 2.254-3.857 5.338-3.667 8.438s1.891 5.906 4.655 7.676l-.36.186c-2.065 2.704-2.787 6.018-1.966 9.023.822 3.006 3.098 5.383 6.2 6.474-1.58 2.936-1.776 6.25-.534 9.052 1.242 2.804 3.794 4.81 6.973 5.48-1.113 2.81-.947 5.816.454 8.218s3.898 3.958 6.825 4.256q-.25.21-.496.425c-1.294 2.835-1.265 5.941.08 8.458 1.346 2.517 3.863 4.176 6.855 4.518l-.3.295c-1.59 2.244-2.108 4.932-1.419 7.356.689 2.425 2.516 4.34 4.999 5.244-1.68 1.892-2.439 4.29-2.086 6.59.352 2.301 1.782 4.285 3.93 5.453-2.109 3.878-1.915 8.368.513 11.923l-.027.005c-2.297 3.222-2.615 7.234-.846 10.657q-.395.075-.786.159c-3.069 3.63-3.817 8.415-1.98 12.67l.512.044-.027.093-.48.114c-3.197 2.838-4.48 6.999-3.4 11.023q-.225.445-.442.895c-3.108 2.275-4.699 5.856-4.267 9.604-2.8 2.808-3.789 6.724-2.63 10.422l.606.104q-.288.047-.573.098c-2.186 3.974-1.984 8.59.534 12.223l.415-.005q-.088.04-.18.07c-2.622 4.358-1.643 9.571 2.34 12.47-1.62 4.777.507 9.612 5.048 11.47l.011-.006.017.033-.038.038c-.942 5.117 1.854 9.765 6.7 11.137l-.01.017c.47 5.383 4.62 9.218 9.865 9.118l-.021.054c1.633 5.027 6.452 7.746 11.42 6.445 2.177 4.688 7.147 6.813 11.88 5.08l.038-.3c2.017 2.538 5.063 3.723 8.082 3.143a45.938 45.938 0 0 0 69.262-45.771 69.3 69.3 0 0 0-7.344-16.949 61.36 61.36 0 0 1 15.819-64.39 40.88 40.88 0 0 0-42.929-62.698 36.64 36.64 0 0 1 24.85 63.828c-19.6 21.42-22.597 53.248-7.339 77.95a26.677 26.677 0 0 1-22.662 36.56"/><title>shape6-12</title><title>path44</title><path fill="#FFFFFF" d="M179.113 101.07a59.9 59.9 0 0 0-13.555-18.072 45.44 45.44 0 0 0-31.633-6.777l-32.762 10.728a14.67 14.67 0 0 0-9.036 9.036 9.56 9.56 0 0 0 8.474 7.912 80.3 80.3 0 0 1 20.9 1.408 26.886 26.886 0 0 0 31.627-7.623 27.72 27.72 0 0 1-32.195 7.623 72 72 0 0 0-20.9-1.408 2.43 2.43 0 1 0 2.827 3.951 48.26 48.26 0 0 0 22.307 1.13 17.79 17.79 0 0 0 22.597.567 16.95 16.95 0 0 1-14.406 3.389 5.437 5.437 0 0 0 6.499 5.647 18.46 18.46 0 0 0 11.012-5.647 20.28 20.28 0 0 1-11.296 6.21 4.66 4.66 0 0 0 3.389 5.085c16.087 2.136 31.365-7.652 36.15-23.158"/><path stroke="black" stroke-linecap="round" stroke-linejoin="round" stroke-width="1.228" d="M179.113 101.07a59.9 59.9 0 0 0-13.555-18.072 45.44 45.44 0 0 0-31.633-6.777l-32.762 10.728a14.67 14.67 0 0 0-9.036 9.036 9.56 9.56 0 0 0 8.474 7.912 80.3 80.3 0 0 1 20.9 1.408 26.886 26.886 0 0 0 31.627-7.623 27.72 27.72 0 0 1-32.195 7.623 72 72 0 0 0-20.9-1.408 2.43 2.43 0 1 0 2.827 3.951 48.26 48.26 0 0 0 22.307 1.13 17.79 17.79 0 0 0 22.597.567 16.95 16.95 0 0 1-14.406 3.389 5.437 5.437 0 0 0 6.499 5.647 18.46 18.46 0 0 0 11.012-5.647 20.28 20.28 0 0 1-11.296 6.21 4.66 4.66 0 0 0 3.389 5.085c16.087 2.136 31.365-7.652 36.15-23.158"/><title>shape8-15</title><title>path52</title><path fill="black" d="M117.205 77.932a11.8 11.8 0 0 0-.508 3.416c.094 6.436 5.339 11.605 11.776 11.605s11.682-5.169 11.776-11.605a11.78 11.78 0 0 0-4.71-9.424Z"/><path stroke="black" stroke-linecap="round" stroke-linejoin="round" stroke-width="1.228" d="M117.205 77.932a11.8 11.8 0 0 0-.508 3.416c.094 6.436 5.339 11.605 11.776 11.605s11.682-5.169 11.776-11.605a11.78 11.78 0 0 0-4.71-9.424Z"/><title>shape9-17</title><title>path57</title><path fill="#FFFFFF" d="M115.85 80.738a11.297 11.297 0 1 1 22.59 0c-.093 6.171-5.123 11.125-11.295 11.125s-11.201-4.954-11.295-11.125"/><path stroke="black" stroke-linecap="round" stroke-linejoin="round" stroke-width="1.228" d="M115.85 80.738a11.297 11.297 0 1 1 22.59 0c-.093 6.171-5.123 11.125-11.295 11.125s-11.201-4.954-11.295-11.125"/><title>shape10-19</title><title>path62</title><path fill="#FFFFFF" d="M115.85 80.738a9.037 9.037 0 1 1 18.073-.274 9.037 9.037 0 0 1-18.073.274"/><path stroke="black" stroke-linecap="round" stroke-linejoin="round" stroke-width="1.228" d="M115.85 80.738a9.037 9.037 0 1 1 18.073-.274 9.037 9.037 0 0 1-18.073.274"/><title>shape11-21</title><title>path67</title><path fill="black" d="M120.369 80.737a4.519 4.519 0 0 1 9.036 0 4.519 4.519 0 0 1-9.036 0"/><path stroke="black" stroke-linecap="round" stroke-linejoin="round" stroke-width=".131" d="M120.369 80.737a4.519 4.519 0 0 1 9.036 0 4.519 4.519 0 0 1-9.036 0"/><title>group13-25</title><title>shape14-26</title><title>path80</title><path stroke="black" stroke-linecap="round" stroke-linejoin="round" stroke-width="1.228" d="M100.6 104.18a38.6 38.6 0 0 1 20.331 1.129 29.69 29.69 0 0 0 32.762-7.629"/><title>shape15-29</title><title>path85</title><path stroke="black" stroke-linecap="round" stroke-linejoin="round" stroke-width="1.228" d="M133.36 112.93c4.98.825 9.946-.268 14.122-3.106"/><title>shape16-32</title><title>path90</title><path stroke="black" stroke-linecap="round" stroke-linejoin="round" stroke-width="1.228" d="M139.855 118.862a17 17 0 0 0 11.017-5.932"/><title>shape18-36</title><title>path98</title><path fill="#FFFFFF" d="M157.17 124.243c-5.653-1.558-11.688-1.815-17.55-.748-2.807 2.29-4.32 5.575-4.091 8.88s2.175 6.253 5.26 7.965a527 527 0 0 0 16.942-4.518c1.673-3.894 1.468-8.124-.562-11.58"/><path stroke="black" stroke-linecap="round" stroke-linejoin="round" stroke-width="1.179" d="M157.17 124.243c-5.653-1.558-11.688-1.815-17.55-.748-2.807 2.29-4.32 5.575-4.091 8.88s2.175 6.253 5.26 7.965a527 527 0 0 0 16.942-4.518c1.673-3.894 1.468-8.124-.562-11.58"/><title>shape19-38</title><title>path103</title><path fill="#FFFFFF" d="M157.171 135.541c-5.99.202-11.957 1.79-17.352 4.617-2.145 2.808-2.837 6.267-1.87 9.35.965 3.085 3.478 5.44 6.792 6.365a475 475 0 0 0 14.406-6.493c1.57-4.863.849-9.917-1.976-13.839"/><path stroke="black" stroke-linecap="round" stroke-linejoin="round" stroke-width="1.179" d="M157.171 135.541c-5.99.202-11.957 1.79-17.352 4.617-2.145 2.808-2.837 6.267-1.87 9.35.965 3.085 3.478 5.44 6.792 6.365a475 475 0 0 0 14.406-6.493c1.57-4.863.849-9.917-1.976-13.839"/><title>shape20-40</title><title>path108</title><path fill="#FFFFFF" d="M158.861 149.093c-5.17.877-10.158 2.953-14.504 6.036-1.837 3.03-2.155 6.555-.86 9.528 1.294 2.972 4.053 5.05 7.457 5.62a453 453 0 0 0 13.015-7.624c.498-5.273-1.368-10.227-5.108-13.56"/><path stroke="black" stroke-linecap="round" stroke-linejoin="round" stroke-width="1.179" d="M158.861 149.093c-5.17.877-10.158 2.953-14.504 6.036-1.837 3.03-2.155 6.555-.86 9.528 1.294 2.972 4.053 5.05 7.457 5.62a453 453 0 0 0 13.015-7.624c.498-5.273-1.368-10.227-5.108-13.56"/><title>shape21-42</title><title>path113</title><path fill="#FFFFFF" d="M163.38 162.65c-4.648 1.335-9.005 3.75-12.67 7.022-1.345 2.943-1.259 6.173.23 8.73 1.49 2.557 4.212 4.148 7.36 4.301a373 373 0 0 0 10.733-6.215c.363-5.452-1.702-10.507-5.653-13.838"/><path stroke="black" stroke-linecap="round" stroke-linejoin="round" stroke-width="1.179" d="M163.38 162.65c-4.648 1.335-9.005 3.75-12.67 7.022-1.345 2.943-1.259 6.173.23 8.73 1.49 2.557 4.212 4.148 7.36 4.301a373 373 0 0 0 10.733-6.215c.363-5.452-1.702-10.507-5.653-13.838"/><title>shape22-44</title><title>path118</title><path fill="#FFFFFF" d="M169.03 176.774c-4.297 1.172-8.341 3.344-11.759 6.313-1.344 2.943-1.258 6.173.231 8.73s4.212 4.148 7.36 4.301a373 373 0 0 0 10.733-6.215c-.05-5.365-2.448-10.161-6.564-13.13"/><path stroke="black" stroke-linecap="round" stroke-linejoin="round" stroke-width="1.179" d="M169.03 176.774c-4.297 1.172-8.341 3.344-11.759 6.313-1.344 2.943-1.258 6.173.231 8.73s4.212 4.148 7.36 4.301a373 373 0 0 0 10.733-6.215c-.05-5.365-2.448-10.161-6.564-13.13"/><title>shape23-46</title><title>path123</title><path fill="#FFFFFF" d="M175.242 189.197c-4.224 1.481-8.122 3.945-11.334 7.164-1.694 2.394-2.164 5.285-1.27 7.814s3.05 4.406 5.826 5.075q6.93-2.92 13.768-6.073c-.053-5.713-2.607-10.82-6.99-13.98"/><path stroke="black" stroke-linecap="round" stroke-linejoin="round" stroke-width="1.179" d="M175.242 189.197c-4.224 1.481-8.122 3.945-11.334 7.164-1.694 2.394-2.164 5.285-1.27 7.814s3.05 4.406 5.826 5.075q6.93-2.92 13.768-6.073c-.053-5.713-2.607-10.82-6.99-13.98"/><title>shape24-48</title><title>path128</title><path fill="#FFFFFF" d="M181.739 202.755c-4.982.87-9.782 2.898-13.959 5.893-1.938 1.995-2.802 4.635-2.335 7.136.467 2.5 2.21 4.577 4.715 5.61a511 511 0 0 0 15.939-5.93c.606-4.874-.987-9.517-4.36-12.71"/><path stroke="black" stroke-linecap="round" stroke-linejoin="round" stroke-width="1.179" d="M181.739 202.755c-4.982.87-9.782 2.898-13.959 5.893-1.938 1.995-2.802 4.635-2.335 7.136.467 2.5 2.21 4.577 4.715 5.61a511 511 0 0 0 15.939-5.93c.606-4.874-.987-9.517-4.36-12.71"/><title>shape25-50</title><title>path133</title><path fill="#FFFFFF" d="M185.694 216.03c-5.676.372-11.289 2.057-16.32 4.901-2.16 3.912-1.969 8.459.507 12.043a82.6 82.6 0 0 0 17.789-3.672c1.479-4.676.757-9.524-1.976-13.271"/><path stroke="black" stroke-linecap="round" stroke-linejoin="round" stroke-width="1.179" d="M185.694 216.03c-5.676.372-11.289 2.057-16.32 4.901-2.16 3.912-1.969 8.459.507 12.043a82.6 82.6 0 0 0 17.789-3.672c1.479-4.676.757-9.524-1.976-13.271"/><title>shape26-52</title><title>path138</title><path fill="#FFFFFF" d="M187.107 230.149c-5.832-.39-11.777.567-17.287 2.783-2.328 3.26-2.627 7.33-.791 10.777a79.6 79.6 0 0 0 17.51 0c2.362-4.363 2.57-9.317.568-13.56"/><path stroke="black" stroke-linecap="round" stroke-linejoin="round" stroke-width="1.179" d="M187.107 230.149c-5.832-.39-11.777.567-17.287 2.783-2.328 3.26-2.627 7.33-.791 10.777a79.6 79.6 0 0 0 17.51 0c2.362-4.363 2.57-9.317.568-13.56"/><title>shape27-54</title><title>path143</title><path fill="#FFFFFF" d="M185.413 243.988c-5.586-1.37-11.51-1.452-17.228-.24-3.066 3.63-3.814 8.41-1.98 12.665a79.6 79.6 0 0 0 17.51-.279c2.507-3.717 3.127-8.154 1.698-12.146"/><path stroke="black" stroke-linecap="round" stroke-linejoin="round" stroke-width="1.179" d="M185.413 243.988c-5.586-1.37-11.51-1.452-17.228-.24-3.066 3.63-3.814 8.41-1.98 12.665a79.6 79.6 0 0 0 17.51-.279c2.507-3.717 3.127-8.154 1.698-12.146"/><title>shape28-56</title><title>path148</title><path fill="#FFFFFF" d="M182.588 256.416c-5.345-1.145-10.977-1.059-16.375.25-3.203 2.845-4.485 7.015-3.394 11.045a77.3 77.3 0 0 0 16.943 1.414c2.967-3.721 4-8.364 2.826-12.71"/><path stroke="black" stroke-linecap="round" stroke-linejoin="round" stroke-width="1.179" d="M182.588 256.416c-5.345-1.145-10.977-1.059-16.375.25-3.203 2.845-4.485 7.015-3.394 11.045a77.3 77.3 0 0 0 16.943 1.414c2.967-3.721 4-8.364 2.826-12.71"/><title>shape29-58</title><title>path153</title><path fill="#FFFFFF" d="M179.48 268.84c-5.378-1.432-11.11-1.625-16.665-.563-3.413 2.261-5.187 6.036-4.698 9.997a77.3 77.3 0 0 0 16.943 1.413c3.193-2.854 4.807-6.816 4.42-10.848"/><path stroke="black" stroke-linecap="round" stroke-linejoin="round" stroke-width="1.179" d="M179.48 268.84c-5.378-1.432-11.11-1.625-16.665-.563-3.413 2.261-5.187 6.036-4.698 9.997a77.3 77.3 0 0 0 16.943 1.413c3.193-2.854 4.807-6.816 4.42-10.848"/><title>shape30-60</title><title>path158</title><path fill="#FFFFFF" d="M174.115 279.576c-5.035-1.692-10.48-2.227-15.836-1.555-2.929 2.814-3.988 6.813-2.804 10.591a78.5 78.5 0 0 0 17.227 1.13c2.094-3.113 2.61-6.826 1.413-10.166"/><path stroke="black" stroke-linecap="round" stroke-linejoin="round" stroke-width="1.179" d="M174.115 279.576c-5.035-1.692-10.48-2.227-15.836-1.555-2.929 2.814-3.988 6.813-2.804 10.591a78.5 78.5 0 0 0 17.227 1.13c2.094-3.113 2.61-6.826 1.413-10.166"/><title>shape31-62</title><title>path163</title><path fill="#FFFFFF" d="M171.908 289.524c-5.283-1.46-10.924-1.704-16.403-.71-2.186 3.974-1.984 8.59.534 12.224a75 75 0 0 0 16.382-1.976c1.36-3.215 1.174-6.7-.513-9.538"/><path stroke="black" stroke-linecap="round" stroke-linejoin="round" stroke-width="1.179" d="M171.908 289.524c-5.283-1.46-10.924-1.704-16.403-.71-2.186 3.974-1.984 8.59.534 12.224a75 75 0 0 0 16.382-1.976c1.36-3.215 1.174-6.7-.513-9.538"/><title>shape32-64</title><title>path168</title><path fill="#FFFFFF" d="M172.985 299.062c-5.588-.588-11.334.114-16.709 2.04-2.683 4.458-1.59 9.795 2.587 12.644a75 75 0 0 0 15.251-6.215c.987-2.963.574-6.056-1.13-8.469"/><path stroke="black" stroke-linecap="round" stroke-linejoin="round" stroke-width="1.179" d="M172.985 299.062c-5.588-.588-11.334.114-16.709 2.04-2.683 4.458-1.59 9.795 2.587 12.644a75 75 0 0 0 15.251-6.215c.987-2.963.574-6.056-1.13-8.469"/><title>shape33-66</title><title>path173</title><path fill="#FFFFFF" d="M173.27 308.1c-5.168.67-10.201 2.537-14.636 5.43-1.649 4.789.475 9.648 5.031 11.513a74 74 0 0 0 13.555-9.036c-.03-3.231-1.473-6.12-3.95-7.907"/><path stroke="black" stroke-linecap="round" stroke-linejoin="round" stroke-width="1.179" d="M173.27 308.1c-5.168.67-10.201 2.537-14.636 5.43-1.649 4.789.475 9.648 5.031 11.513a74 74 0 0 0 13.555-9.036c-.03-3.231-1.473-6.12-3.95-7.907"/><title>shape34-68</title><title>path178</title><path fill="#FFFFFF" d="M176.936 316.286c-4.981 1.874-9.549 4.906-13.282 8.818-.97 5.265 2.016 10.008 7.072 11.236a72.7 72.7 0 0 0 10.733-11.863c-.171-3.416-1.824-6.408-4.523-8.19"/><path stroke="black" stroke-linecap="round" stroke-linejoin="round" stroke-width="1.179" d="M176.936 316.286c-4.981 1.874-9.549 4.906-13.282 8.818-.97 5.265 2.016 10.008 7.072 11.236a72.7 72.7 0 0 0 10.733-11.863c-.171-3.416-1.824-6.408-4.523-8.19"/><title>shape35-70</title><title>path183</title><path fill="#FFFFFF" d="M180.61 324.761c-4.202 2.972-7.734 6.928-10.27 11.503.477 5.429 4.692 9.275 9.987 9.113a63.7 63.7 0 0 0 7.907-11.58c-1.055-4.19-3.84-7.49-7.624-9.036"/><path stroke="black" stroke-linecap="round" stroke-linejoin="round" stroke-width="1.179" d="M180.61 324.761c-4.202 2.972-7.734 6.928-10.27 11.503.477 5.429 4.692 9.275 9.987 9.113a63.7 63.7 0 0 0 7.907-11.58c-1.055-4.19-3.84-7.49-7.624-9.036"/><title>shape36-72</title><title>path188</title><path fill="#FFFFFF" d="M188.235 334.083c-3.468 3.09-6.236 6.993-8.049 11.35 1.636 5.033 6.464 7.751 11.438 6.44a64.2 64.2 0 0 0 3.956-13.555c-1.733-2.57-4.416-4.116-7.345-4.235"/><path stroke="black" stroke-linecap="round" stroke-linejoin="round" stroke-width="1.179" d="M188.235 334.083c-3.468 3.09-6.236 6.993-8.049 11.35 1.636 5.033 6.464 7.751 11.438 6.44a64.2 64.2 0 0 0 3.956-13.555c-1.733-2.57-4.416-4.116-7.345-4.235"/><title>shape37-74</title><title>path193</title><path fill="#FFFFFF" d="M195.576 338.882c-2.285 3.833-3.692 8.209-4.093 12.725 2.102 4.864 7.17 7.121 12.005 5.348a56.4 56.4 0 0 0 .278-12.425c-1.784-3.17-4.776-5.232-8.19-5.648"/><path stroke="black" stroke-linecap="round" stroke-linejoin="round" stroke-width="1.179" d="M195.576 338.882c-2.285 3.833-3.692 8.209-4.093 12.725 2.102 4.864 7.17 7.121 12.005 5.348a56.4 56.4 0 0 0 .278-12.425c-1.784-3.17-4.776-5.232-8.19-5.648"/><title>shape38-76</title><title>path198</title><path fill="#FFFFFF" d="M204.052 343.967a27.7 27.7 0 0 0-.85 12.261c2.69 3.805 7.462 4.828 11.3 2.423a32.3 32.3 0 0 0-.851-7.06c-1.93-4.044-5.437-6.828-9.599-7.624"/><path stroke="black" stroke-linecap="round" stroke-linejoin="round" stroke-width="1.179" d="M204.052 343.967a27.7 27.7 0 0 0-.85 12.261c2.69 3.805 7.462 4.828 11.3 2.423a32.3 32.3 0 0 0-.851-7.06c-1.93-4.044-5.437-6.828-9.599-7.624"/><title>shape40-79</title><title>path206</title><path fill="#FFFFFF" d="M175.271 101.08a4.237 4.237 0 1 1 8.475 0 4.237 4.237 0 0 1-8.475 0"/><path stroke="black" stroke-linecap="round" stroke-linejoin="round" stroke-width="1.228" d="M175.271 101.08a4.237 4.237 0 1 1 8.475 0 4.237 4.237 0 0 1-8.475 0"/><title>shape41-81</title><title>path211</title><path fill="#FFFFFF" d="M177.079 109.44a4.237 4.237 0 1 1 8.474 0 4.237 4.237 0 0 1-8.474 0"/><path stroke="black" stroke-linecap="round" stroke-linejoin="round" stroke-width="1.228" d="M177.079 109.44a4.237 4.237 0 1 1 8.474 0 4.237 4.237 0 0 1-8.474 0"/><title>shape42-83</title><title>path216</title><path fill="#FFFFFF" d="M180.242 117.799a4.237 4.237 0 1 1 8.474 0 4.237 4.237 0 0 1-8.474 0"/><path stroke="black" stroke-linecap="round" stroke-linejoin="round" stroke-width="1.228" d="M180.242 117.799a4.237 4.237 0 1 1 8.474 0 4.237 4.237 0 0 1-8.474 0"/><title>shape43-85</title><title>path221</title><path fill="#FFFFFF" d="M182.953 125.481a4.237 4.237 0 1 1 8.474 0 4.237 4.237 0 0 1-8.474 0"/><path stroke="black" stroke-linecap="round" stroke-linejoin="round" stroke-width="1.228" d="M182.953 125.481a4.237 4.237 0 1 1 8.474 0 4.237 4.237 0 0 1-8.474 0"/><title>shape44-87</title><title>path226</title><path fill="#FFFFFF" d="M185.89 133.163a4.237 4.237 0 1 1 8.475 0 4.237 4.237 0 0 1-8.475 0"/><path stroke="black" stroke-linecap="round" stroke-linejoin="round" stroke-width="1.228" d="M185.89 133.163a4.237 4.237 0 1 1 8.475 0 4.237 4.237 0 0 1-8.475 0"/><title>shape45-89</title><title>path231</title><path fill="#FFFFFF" d="M189.957 141.07a4.237 4.237 0 1 1 8.474 0 4.237 4.237 0 0 1-8.474 0"/><path stroke="black" stroke-linecap="round" stroke-linejoin="round" stroke-width="1.228" d="M189.957 141.07a4.237 4.237 0 1 1 8.474 0 4.237 4.237 0 0 1-8.474 0"/><title>shape46-91</title><title>path236</title><path fill="#FFFFFF" d="M209.388 168.86a4.237 4.237 0 1 1 8.474 0 4.237 4.237 0 0 1-8.474 0"/><path stroke="black" stroke-linecap="round" stroke-linejoin="round" stroke-width="1.228" d="M209.388 168.86a4.237 4.237 0 1 1 8.474 0 4.237 4.237 0 0 1-8.474 0"/><title>shape47-93</title><title>path241</title><path fill="#FFFFFF" d="M195.605 147.622a4.237 4.237 0 1 1 8.475 0 4.237 4.237 0 0 1-8.475 0"/><path stroke="black" stroke-linecap="round" stroke-linejoin="round" stroke-width="1.228" d="M195.605 147.622a4.237 4.237 0 1 1 8.475 0 4.237 4.237 0 0 1-8.475 0"/><title>shape48-95</title><title>path246</title><path fill="#FFFFFF" d="M212.55 176.316a4.237 4.237 0 1 1 8.475 0 4.237 4.237 0 0 1-8.474 0"/><path stroke="black" stroke-linecap="round" stroke-linejoin="round" stroke-width="1.228" d="M212.55 176.316a4.237 4.237 0 1 1 8.475 0 4.237 4.237 0 0 1-8.474 0"/><title>shape49-97</title><title>path251</title><path fill="#FFFFFF" d="M200.124 154.4a4.237 4.237 0 1 1 8.475 0 4.237 4.237 0 0 1-8.475 0"/><path stroke="black" stroke-linecap="round" stroke-linejoin="round" stroke-width="1.228" d="M200.124 154.4a4.237 4.237 0 1 1 8.475 0 4.237 4.237 0 0 1-8.475 0"/><title>shape50-99</title><title>path256</title><path fill="#FFFFFF" d="M215.488 183.998a4.237 4.237 0 1 1 8.474 0 4.237 4.237 0 0 1-8.474 0"/><path stroke="black" stroke-linecap="round" stroke-linejoin="round" stroke-width="1.228" d="M215.488 183.998a4.237 4.237 0 1 1 8.474 0 4.237 4.237 0 0 1-8.474 0"/><title>shape51-101</title><title>path261</title><path fill="#FFFFFF" d="M205.095 161.63a4.237 4.237 0 1 1 8.474 0 4.237 4.237 0 0 1-8.474 0"/><path stroke="black" stroke-linecap="round" stroke-linejoin="round" stroke-width="1.228" d="M205.095 161.63a4.237 4.237 0 1 1 8.474 0 4.237 4.237 0 0 1-8.474 0"/><title>shape52-103</title><title>path266</title><path fill="#FFFFFF" d="M220.233 200.266a4.237 4.237 0 1 1 8.474 0 4.237 4.237 0 0 1-8.474 0"/><path stroke="black" stroke-linecap="round" stroke-linejoin="round" stroke-width="1.228" d="M220.233 200.266a4.237 4.237 0 1 1 8.474 0 4.237 4.237 0 0 1-8.474 0"/><title>shape53-105</title><title>path271</title><path fill="#FFFFFF" d="M218.2 192.132a4.237 4.237 0 1 1 8.473 0 4.237 4.237 0 0 1-8.474 0"/><path stroke="black" stroke-linecap="round" stroke-linejoin="round" stroke-width="1.228" d="M218.2 192.132a4.237 4.237 0 1 1 8.473 0 4.237 4.237 0 0 1-8.474 0"/><title>shape54-107</title><title>path276</title><path fill="#FFFFFF" d="M222.04 208.4a4.237 4.237 0 1 1 8.474 0 4.237 4.237 0 0 1-8.474 0"/><path stroke="black" stroke-linecap="round" stroke-linejoin="round" stroke-width="1.228" d="M222.04 208.4a4.237 4.237 0 1 1 8.474 0 4.237 4.237 0 0 1-8.474 0"/><title>shape55-109</title><title>path281</title><path fill="#FFFFFF" d="M222.718 216.872a4.237 4.237 0 1 1 8.474 0 4.237 4.237 0 0 1-8.474 0"/><path stroke="black" stroke-linecap="round" stroke-linejoin="round" stroke-width="1.228" d="M222.718 216.872a4.237 4.237 0 1 1 8.474 0 4.237 4.237 0 0 1-8.474 0"/><title>shape56-111</title><title>path286</title><path fill="#FFFFFF" d="M220.91 233.705a4.237 4.237 0 1 1 8.475 0 4.237 4.237 0 0 1-8.475 0"/><path stroke="black" stroke-linecap="round" stroke-linejoin="round" stroke-width="1.228" d="M220.91 233.705a4.237 4.237 0 1 1 8.475 0 4.237 4.237 0 0 1-8.475 0"/><title>shape57-113</title><title>path291</title><path fill="#FFFFFF" d="M222.181 225.458a4.237 4.237 0 1 1 8.475 0 4.237 4.237 0 0 1-8.475 0"/><path stroke="black" stroke-linecap="round" stroke-linejoin="round" stroke-width="1.228" d="M222.181 225.458a4.237 4.237 0 1 1 8.475 0 4.237 4.237 0 0 1-8.475 0"/><title>shape58-115</title><title>path296</title><path fill="#FFFFFF" d="M203.061 281.151a4.237 4.237 0 1 1 8.475 0 4.237 4.237 0 0 1-8.475 0"/><path stroke="black" stroke-linecap="round" stroke-linejoin="round" stroke-width="1.228" d="M203.061 281.151a4.237 4.237 0 1 1 8.475 0 4.237 4.237 0 0 1-8.475 0"/><title>shape59-117</title><title>path301</title><path fill="#FFFFFF" d="M220.007 242.064a4.237 4.237 0 1 1 8.474 0 4.237 4.237 0 0 1-8.474 0"/><path stroke="black" stroke-linecap="round" stroke-linejoin="round" stroke-width="1.228" d="M220.007 242.064a4.237 4.237 0 1 1 8.474 0 4.237 4.237 0 0 1-8.474 0"/><title>shape60-119</title><title>path306</title><path fill="#FFFFFF" d="M207.354 273.92a4.237 4.237 0 1 1 8.475 0 4.237 4.237 0 0 1-8.475 0"/><path stroke="black" stroke-linecap="round" stroke-linejoin="round" stroke-width="1.228" d="M207.354 273.92a4.237 4.237 0 1 1 8.475 0 4.237 4.237 0 0 1-8.475 0"/><title>shape61-121</title><title>path311</title><path fill="#FFFFFF" d="M217.07 249.972a4.237 4.237 0 1 1 8.474 0 4.237 4.237 0 0 1-8.475 0"/><path stroke="black" stroke-linecap="round" stroke-linejoin="round" stroke-width="1.228" d="M217.07 249.972a4.237 4.237 0 1 1 8.474 0 4.237 4.237 0 0 1-8.475 0"/><title>shape62-123</title><title>path316</title><path fill="#FFFFFF" d="M211.195 266.014a4.237 4.237 0 1 1 8.474 0 4.237 4.237 0 0 1-8.474 0"/><path stroke="black" stroke-linecap="round" stroke-linejoin="round" stroke-width="1.228" d="M211.195 266.014a4.237 4.237 0 1 1 8.474 0 4.237 4.237 0 0 1-8.474 0"/><title>shape63-125</title><title>path321</title><path fill="#FFFFFF" d="M214.132 258.106a4.237 4.237 0 1 1 8.475 0 4.237 4.237 0 0 1-8.475 0"/><path stroke="black" stroke-linecap="round" stroke-linejoin="round" stroke-width="1.228" d="M214.132 258.106a4.237 4.237 0 1 1 8.475 0 4.237 4.237 0 0 1-8.475 0"/><title>shape64-127</title><title>path326</title><path fill="#FFFFFF" d="M198.015 314.552a4.237 4.237 0 1 1 8.475 0 4.237 4.237 0 0 1-8.475 0"/><path stroke="black" stroke-linecap="round" stroke-linejoin="round" stroke-width="1.228" d="M198.015 314.552a4.237 4.237 0 1 1 8.475 0 4.237 4.237 0 0 1-8.475 0"/><title>shape65-129</title><title>path331</title><path fill="#FFFFFF" d="M196.961 296.938a4.237 4.237 0 1 1 8.474 0 4.237 4.237 0 0 1-8.474 0"/><path stroke="black" stroke-linecap="round" stroke-linejoin="round" stroke-width="1.228" d="M196.961 296.938a4.237 4.237 0 1 1 8.474 0 4.237 4.237 0 0 1-8.474 0"/><title>shape66-131</title><title>path336</title><path fill="#FFFFFF" d="M201.97 322.271a4.237 4.237 0 1 1 8.474 0 4.237 4.237 0 0 1-8.475 0"/><path stroke="black" stroke-linecap="round" stroke-linejoin="round" stroke-width="1.228" d="M201.97 322.271a4.237 4.237 0 1 1 8.474 0 4.237 4.237 0 0 1-8.475 0"/><title>shape67-133</title><title>path341</title><path fill="#FFFFFF" d="M196.961 306.004a4.237 4.237 0 1 1 8.474 0 4.237 4.237 0 0 1-8.474 0"/><path stroke="black" stroke-linecap="round" stroke-linejoin="round" stroke-width="1.228" d="M196.961 306.004a4.237 4.237 0 1 1 8.474 0 4.237 4.237 0 0 1-8.474 0"/><title>shape68-135</title><title>path346</title><path fill="#FFFFFF" d="M207.806 328.861a4.237 4.237 0 1 1 8.474 0 4.237 4.237 0 0 1-8.474 0"/><path stroke="black" stroke-linecap="round" stroke-linejoin="round" stroke-width="1.228" d="M207.806 328.861a4.237 4.237 0 1 1 8.474 0 4.237 4.237 0 0 1-8.474 0"/><title>shape69-137</title><title>path351</title><path fill="#FFFFFF" d="M198.995 288.607a4.237 4.237 0 1 1 8.474 0 4.237 4.237 0 0 1-8.474 0"/><path stroke="black" stroke-linecap="round" stroke-linejoin="round" stroke-width="1.228" d="M198.995 288.607a4.237 4.237 0 1 1 8.474 0 4.237 4.237 0 0 1-8.474 0"/><title>path356</title><path fill="#FFFFFF" d="M166.571 293.748a11.079 11.079 0 0 0 16.381-14.69 72 72 0 0 0-27.109-16.943 14.385 14.385 0 0 0-15.82 4.518 41.4 41.4 0 0 1-6.918 6.422 2.79 2.79 0 0 1-4.802-2.324 17.8 17.8 0 0 1 2.755-5.086 2.703 2.703 0 1 0-3.317-1.975 15.9 15.9 0 0 1-2.685 5.364 1.69 1.69 0 0 1-2.892-1.626 22.6 22.6 0 0 0 1.2-13.342 3.465 3.465 0 1 0-5.085 1.342 12.88 12.88 0 0 1 .845 8.54 1.248 1.248 0 0 1-2.4-.142 87 87 0 0 1-8.753-13.767 2.952 2.952 0 1 0-4.098 2.188 46.5 46.5 0 0 0 7.344 13.56 2.16 2.16 0 0 1-.562 3.95 6.37 6.37 0 0 1-4.098-.703l-4.66-2.117a2.97 2.97 0 1 0-1.484 4.092 37 37 0 0 1 7.841 3.181 3.39 3.39 0 0 1 2.189 3.88 10.178 10.178 0 0 0 15.18 8.895l18.357-5.926a9.27 9.27 0 0 1 9.036 1.691Z"/><path stroke="black" stroke-linecap="round" stroke-linejoin="round" stroke-width="1.228" d="M166.571 293.748a11.079 11.079 0 0 0 16.381-14.69 72 72 0 0 0-27.109-16.943 14.385 14.385 0 0 0-15.82 4.518 41.4 41.4 0 0 1-6.918 6.422 2.79 2.79 0 0 1-4.802-2.324 17.8 17.8 0 0 1 2.755-5.086 2.703 2.703 0 1 0-3.317-1.975 15.9 15.9 0 0 1-2.685 5.364 1.69 1.69 0 0 1-2.892-1.626 22.6 22.6 0 0 0 1.2-13.342 3.465 3.465 0 1 0-5.085 1.342 12.88 12.88 0 0 1 .845 8.54 1.248 1.248 0 0 1-2.4-.142 87 87 0 0 1-8.753-13.767 2.952 2.952 0 1 0-4.098 2.188 46.5 46.5 0 0 0 7.344 13.56 2.16 2.16 0 0 1-.562 3.95 6.37 6.37 0 0 1-4.098-.703l-4.66-2.117a2.97 2.97 0 1 0-1.484 4.092 37 37 0 0 1 7.841 3.181 3.39 3.39 0 0 1 2.189 3.88 10.178 10.178 0 0 0 15.18 8.895l18.357-5.926a9.27 9.27 0 0 1 9.036 1.691Z"/><title>path361</title><path fill="#FFFFFF" d="M180.912 152.137a11.449 11.449 0 0 0-22.276-4.555 43.95 43.95 0 0 0-2.411 19.356 104 104 0 0 1-27.423 11.15 4.76 4.76 0 0 1-5.505-.643 17.8 17.8 0 0 1 1.345-5.626 2.703 2.703 0 1 0-3.716-1.05 15.9 15.9 0 0 1-1.203 5.882 1.69 1.69 0 0 1-3.215-.822 22.6 22.6 0 0 0-2.294-13.203 3.465 3.465 0 1 0-4.565 2.612 12.88 12.88 0 0 1 3.028 8.036 1.248 1.248 0 0 1-2.356.484 87 87 0 0 1-12.017-11.033 2.952 2.952 0 1 0-3.392 3.174 46.5 46.5 0 0 0 10.602 11.192 2.16 2.16 0 0 1 .481 3.967 6.37 6.37 0 0 1-4.14.38l-5.05-.844a2.97 2.97 0 1 0-.374 4.343c2.83.024 5.646.372 8.396 1.038a3.39 3.39 0 0 1 3.12 3.187 9.387 9.387 0 0 0 16.196.992 118.2 118.2 0 0 0 36.983-7.728 10.04 10.04 0 0 0 10.463-6.154 77.8 77.8 0 0 0 9.323-24.135"/><path stroke="black" stroke-linecap="round" stroke-linejoin="round" stroke-width="1.228" d="M180.912 152.137a11.449 11.449 0 0 0-22.276-4.555 43.95 43.95 0 0 0-2.411 19.356 104 104 0 0 1-27.423 11.15 4.76 4.76 0 0 1-5.505-.643 17.8 17.8 0 0 1 1.345-5.626 2.703 2.703 0 1 0-3.716-1.05 15.9 15.9 0 0 1-1.203 5.882 1.69 1.69 0 0 1-3.215-.822 22.6 22.6 0 0 0-2.294-13.203 3.465 3.465 0 1 0-4.565 2.612 12.88 12.88 0 0 1 3.028 8.036 1.248 1.248 0 0 1-2.356.484 87 87 0 0 1-12.017-11.033 2.952 2.952 0 1 0-3.392 3.174 46.5 46.5 0 0 0 10.602 11.192 2.16 2.16 0 0 1 .481 3.967 6.37 6.37 0 0 1-4.14.38l-5.05-.844a2.97 2.97 0 1 0-.374 4.343c2.83.024 5.646.372 8.396 1.038a3.39 3.39 0 0 1 3.12 3.187 9.387 9.387 0 0 0 16.196.992 118.2 118.2 0 0 0 36.983-7.728 10.04 10.04 0 0 0 10.463-6.154 77.8 77.8 0 0 0 9.323-24.135"/></g></g></svg>