<svg xmlns="http://www.w3.org/2000/svg" width="211.5" height="274.5" viewBox="76.5 72 211.5 274.5"><defs><clipPath id="a"><path d="M76.5 72H288v274.5H76.5Z"/></clipPath></defs><g fill="none"><title>Tower (18)</title><g clip-path="url(#a)"><title>Art</title><title>path855</title><path fill="#FFFFFF" d="M241.401 76.32c-1.75-.018-3.238.046-3.683.438l-.576 1.743c-1.214 5.84-1.379 14.319-.272 14.85-4.976-.28-10.667.43-14.693-.101l-1.123-.128-.147-7.566c-.08-4.16-.238-7.823-.352-8.138s-.65-.573-1.191-.573c-1.647.115-3.475-.246-4.783-.257-.745-.004-1.694.038-2.897.111-3.051.651-6.157-.053-8.83-.218-.547-.024-1.024-.05-1.438-.058-2.903-.052-2.758.835-2.416 10.05.108 2.9.204 6.266.213 7.479l.01 1.513c-2.907.226-6.417-.163-8.944-.064-4.307.184-4.455-.025-4.32-6.099.149-6.624-.42-12.637-1.183-12.727a.2.2 0 0 0-.074.01c-.358.137-5.334.37-11.058.519-5.724.148-10.55.409-10.725.578-.265.258-.583 4.005-1.426 16.815l-.019.366c-3.418.541-7.383.525-10.467.377-1.332-.061-2.519-.208-2.639-.328-.427-.428-.902-6.465-.925-11.764-.013-2.963-.18-5.397-.369-5.41-.437-.028-2.394-.044-4.973-.045a934 934 0 0 0-8.712.039l-6.464.06.023 2.85c.012 1.569-.046 4.605-.132 6.749.058 2.36.121 4.62-.012 6.972-.597-.042-1.558-.016-3.063.072-2.234.13-4.732.248-5.552.264-1.257.36-1.808.367-3.124.087l-.053.016c-.002-.028.004-.046 0-.075-.083-.684-.966-10.331-1.296-14.148-.094-1.1-.296-2.123-.448-2.275-.543-.542-17.201-.345-17.201.204 0 .285.336 1.316.748 2.293.544 1.29.734 3.066.695 6.506-.028 2.601-.173 4.926-.32 5.165s-.035 1.558.25 2.932.565 4.723.62 7.443l.102 4.947 2.735.23 2.735.228-.136 2.903-.135 2.902 1.51-.151c1.448-.145 1.518-.079 1.654 1.57.112 1.353.421 1.866 1.441 2.393 1.236.639 1.29.8 1.122 3.322-.096 1.457-.408 4.094-.694 5.86-.285 1.765-.452 3.622-.373 4.126.214 1.362.086 11.507-.185 14.672-.13 1.513-.35 3.886-.487 5.273-.918 9.286-1.446 43.765-1.089 71.067.006.378-.136 6.361-.315 13.296-.298 11.592-.47 17.502-.832 28.656-.073 2.27-.001 5.468.16 7.107.162 1.64.139 3.186-.051 3.439-.19.252-.264 1.902-.165 3.668.099 1.765.231 6.51.294 10.545l.115 7.336-3.278.23c-2.284.159-3.557.482-4.2 1.064-.506.46-1.61.94-2.452 1.07-1.867.284-1.916.338-2.648 2.909-.735 2.58-1.67 5.072-3.012 8.023-.573 1.261-1.187 3.174-1.365 4.25s-.586 2.222-.908 2.544-.743 1.091-.935 1.71-1.252 3.02-2.354 5.34c-1.101 2.317-2.002 4.337-2.002 4.488s-.431.857-.957 1.57c-1.16 1.567-1.022 3.415.27 3.612 2.404.366 4.827 1.596 5.072 2.574.218.87.753 1.105 3.553 1.565 1.812.299 3.736.422 4.275.274 1.131-.31 1.887.568 1.135 1.32-.28.28-.51 1.14-.51 1.911v1.402l5.387-.167c2.963-.09 5.449-.328 5.524-.526.201-.534 6.512-.114 7.228.48.338.281 1.008.387 1.487.234 2.975-.943 37.059-.962 45.433-.024 1.109.125 2.273.012 2.588-.249.315-.26 1.639-.6 2.942-.754 1.814-.215 2.552-.545 3.144-1.405.425-.618 1.411-1.834 2.192-2.704l1.42-1.581 10.546-.095c11.779-.104 12.115-.035 13.944 2.894.791 1.266 1.515 1.836 2.595 2.043.824.158 1.685.172 1.913.03.366-.225 9.152-.822 10.344-.701.252.025 7.267.106 15.59.18 8.32.073 15.586.28 16.144.46.558.178 1.456.088 1.997-.201.657-.352 5.05-.554 13.249-.61l12.266-.083 1.638-1.25c.902-.688 1.872-1.25 2.155-1.25.538 0 4.394-2.043 5.395-2.858.316-.258 1.23-.603 2.029-.766s1.532-.536 1.63-.828c.097-.293-.868-1.311-2.144-2.264s-2.32-1.986-2.32-2.295c0-.31-.98-1.873-2.178-3.473-2.782-3.718-3.324-4.688-3.327-5.964-.002-.571-.287-1.584-.635-2.25-1.045-2.003-2.642-6.89-3.05-9.334-.21-1.26-.711-3.427-1.115-4.814-.482-1.655-.69-3.83-.603-6.33.112-3.21.025-3.773-.555-3.597-4.138 1.256-9.554 2.987-10.16 3.248-1.055.453-1.274-.473-1.575-6.663-.14-2.875-.344-6.155-.455-7.29-.311-3.196-.273-3.791.265-4.124.349-.216.37-1.126.07-3.021-.237-1.492-.274-2.92-.081-3.171.437-.572-.282-7.324-.903-8.484-.577-1.08-.569-3.773.02-6.322.328-1.423.3-2.246-.098-2.98-.323-.594-.502-2.392-.434-4.342.071-2.013-.168-4.308-.603-5.807-.536-1.843-.688-4.102-.594-8.821.078-3.936-.088-7.179-.437-8.544-.391-1.529-.425-2.567-.108-3.4.25-.659.46-2.04.463-3.071.003-1.03.018-2.492.034-3.249.015-.756-.413-2.568-.95-4.024-.769-2.08-.87-2.852-.473-3.595.375-.699.364-1.29-.04-2.265-.328-.793-.425-2.104-.243-3.283.37-2.406.357-3.133-.198-10.904-.55-7.705-.583-8.268-.527-9.4.2-4.035-.68-10.565-1.79-13.296-.612-1.506-.837-5.374-.382-6.572.305-.8.236-1.406-.242-2.135-.367-.56-.607-1.772-.534-2.694s-.061-2.74-.297-4.04c-.37-2.03-.32-2.426.348-2.8.592-.331.64-.52.199-.792-.442-.273-.344-.688.414-1.752.938-1.318.948-1.423.18-1.908-.58-.367-.65-.584-.24-.755.972-.409.363-6.044-1.018-9.412-.174-.426.002-1.247.399-1.853.537-.82.612-1.476.305-2.673-.224-.872-.538-3.133-.698-5.024-.308-3.305-1.316-7.637-1.14-8.85 1.217-.037 1.797-.085 1.846-.115.247-.153.033-.836-.489-1.57-1.266-1.777-1.176-1.994.68-1.646 1.409.264 1.605.187 1.605-.637 0-.632-.3-.937-.917-.937-.505 0-.917-.207-.917-.459s.412-.458.917-.458c.745 0 .917-.306.917-1.636.01-1.961-1.279-2.84-1-4.514 1.17-.303 3.11-.197 5.097.27.651.153.655-.012.345-18.191-.051-3.026.166-6.844.483-8.483.476-2.967.921-3.05-2.083-3.034-1.641.01-3.824-.217-6.314-.19-1.489.065-3.499-.035-5.249-.053Z"/><title>path21</title><path fill="black" d="M241.401 76.32c-1.75-.018-3.238.046-3.683.438l-.576 1.743c-1.214 5.84-1.38 14.319-.272 14.85-4.976-.28-10.667.43-14.694-.101l-1.122-.128-.147-7.566c-.08-4.16-.239-7.823-.352-8.138-.114-.315-.65-.573-1.191-.573-1.647.115-3.475-.246-4.783-.257-.745-.004-1.695.038-2.897.111-3.052.651-6.158-.053-8.83-.218-.547-.024-1.024-.05-1.439-.058-2.902-.052-2.757.835-2.415 10.05.108 2.9.204 6.266.212 7.479h.001l.01 1.513c-2.907.226-6.417-.163-8.945-.064-4.306.184-4.454-.025-4.318-6.099.147-6.624-.422-12.637-1.184-12.727a.2.2 0 0 0-.075.01c-.357.137-5.333.37-11.057.519-5.725.148-10.55.409-10.725.578-.265.258-.583 4.005-1.426 16.815-.01.138-.014.254-.02.366-3.418.541-7.383.525-10.467.377-1.331-.061-2.518-.208-2.638-.328-.428-.428-.903-6.465-.926-11.763-.012-2.964-.179-5.398-.368-5.41-.438-.03-2.394-.045-4.974-.046s-5.781.011-8.711.039l-6.465.06.024 2.85c.012 1.569-.047 4.605-.132 6.749.058 2.36.121 4.62-.012 6.972-.597-.042-1.559-.016-3.064.072-2.234.13-4.731.248-5.551.264-1.257.36-1.808.367-3.124.087l-.053.016c-.002-.028.003-.046-.001-.075-.083-.684-.966-10.331-1.295-14.148-.095-1.1-.297-2.123-.449-2.275-.542-.542-17.2-.345-17.2.204 0 .285.336 1.316.747 2.293.544 1.29.734 3.066.696 6.506-.029 2.601-.173 4.926-.32 5.165s-.036 1.558.25 2.932c.285 1.373.564 4.723.62 7.443l.101 4.947 2.736.23 2.735.228-.136 2.903-.136 2.902 1.511-.151c1.448-.145 1.518-.079 1.654 1.57.112 1.353.421 1.866 1.44 2.393 1.236.639 1.29.8 1.123 3.322-.097 1.457-.409 4.095-.694 5.86s-.453 3.622-.373 4.126c.214 1.362.086 11.507-.186 14.672a497 497 0 0 1-.486 5.273c-.919 9.286-1.447 43.765-1.089 71.067.005.378-.137 6.361-.315 13.296a3608 3608 0 0 1-.832 28.656c-.074 2.27-.002 5.468.16 7.107s.138 3.186-.052 3.439c-.19.252-.264 1.902-.165 3.668.1 1.765.232 6.51.295 10.545l.115 7.336-3.278.23c-2.284.159-3.558.482-4.2 1.064-.507.46-1.61.94-2.453 1.07-1.867.284-1.916.338-2.648 2.909-.734 2.58-1.67 5.072-3.011 8.023-.573 1.261-1.187 3.174-1.365 4.25s-.586 2.222-.908 2.544-.743 1.091-.936 1.71-1.252 3.02-2.353 5.34c-1.101 2.317-2.003 4.337-2.003 4.488s-.43.857-.957 1.57c-1.16 1.567-1.021 3.415.27 3.612 2.404.366 4.827 1.596 5.073 2.574.218.87.753 1.105 3.552 1.565 1.813.299 3.736.422 4.275.275 1.132-.31 1.888.567 1.136 1.319-.28.28-.51 1.14-.51 1.911v1.402l5.387-.167c2.963-.09 5.448-.328 5.523-.526.202-.534 6.512-.114 7.229.48.338.281 1.007.387 1.487.234 2.974-.943 37.059-.962 45.432-.024 1.11.125 2.274.013 2.588-.249.315-.26 1.64-.6 2.943-.754 1.813-.215 2.552-.545 3.143-1.405.425-.617 1.412-1.834 2.192-2.704l1.42-1.581 10.546-.095c11.78-.104 12.116-.035 13.945 2.894.79 1.266 1.515 1.836 2.595 2.043.824.158 1.685.172 1.913.03.365-.225 9.152-.822 10.344-.701.252.025 7.267.106 15.589.18 8.321.073 15.587.28 16.145.46.558.178 1.456.088 1.997-.201.657-.352 5.05-.554 13.249-.61l12.265-.083 1.639-1.25c.902-.687 1.871-1.25 2.155-1.25.537 0 4.394-2.043 5.394-2.858.317-.257 1.23-.603 2.03-.766.798-.163 1.532-.536 1.63-.828.096-.293-.868-1.311-2.145-2.264-1.276-.953-2.32-1.986-2.32-2.295 0-.31-.98-1.873-2.178-3.473-2.782-3.718-3.323-4.688-3.327-5.964-.001-.571-.287-1.584-.635-2.25-1.044-2.003-2.642-6.89-3.049-9.334-.21-1.26-.712-3.427-1.115-4.814-.482-1.655-.69-3.83-.603-6.33.111-3.21.025-3.773-.555-3.597-4.138 1.256-9.555 2.987-10.16 3.248-1.056.453-1.274-.473-1.575-6.663-.14-2.875-.344-6.155-.455-7.29-.312-3.196-.274-3.791.264-4.124.35-.216.37-1.126.07-3.021-.236-1.492-.273-2.92-.08-3.171.436-.572-.282-7.324-.903-8.484-.578-1.08-.57-3.773.019-6.322.328-1.423.3-2.246-.098-2.98-.323-.594-.502-2.392-.433-4.342.07-2.013-.168-4.308-.604-5.807-.536-1.843-.687-4.102-.594-8.821.079-3.936-.087-7.179-.437-8.544-.39-1.529-.424-2.567-.108-3.4.25-.659.46-2.04.463-3.071.004-1.03.018-2.492.034-3.249.016-.756-.412-2.568-.95-4.024-.768-2.08-.87-2.852-.472-3.595.374-.699.363-1.29-.04-2.265-.329-.793-.426-2.104-.244-3.283.37-2.405.357-3.133-.198-10.904-.55-7.705-.582-8.268-.526-9.4.199-4.035-.68-10.565-1.79-13.296-.613-1.506-.837-5.374-.382-6.572.304-.8.235-1.406-.243-2.135-.367-.56-.607-1.772-.533-2.694s-.061-2.74-.298-4.04c-.369-2.03-.319-2.426.349-2.8.591-.331.639-.52.198-.792-.441-.273-.344-.688.414-1.752.938-1.318.949-1.423.18-1.908-.58-.367-.649-.583-.24-.755.973-.409.363-6.044-1.017-9.412-.175-.426.002-1.247.398-1.853.537-.82.613-1.476.306-2.673-.224-.872-.538-3.133-.699-5.024-.308-3.305-1.315-7.637-1.14-8.85 1.218-.037 1.798-.085 1.847-.115.246-.153.033-.836-.49-1.57-1.265-1.777-1.175-1.994.68-1.646 1.41.264 1.605.187 1.605-.637 0-.632-.299-.937-.917-.937-.504 0-.917-.207-.917-.459s.413-.458.917-.458c.746 0 .917-.306.917-1.635.01-1.962-1.278-2.842-1-4.515 1.17-.303 3.11-.197 5.097.27.652.153.656-.012.346-18.191-.052-3.026.165-6.844.483-8.483.475-2.967.92-3.05-2.083-3.034-1.642.01-3.824-.216-6.315-.19-1.488.065-3.498-.035-5.248-.053Zm-22.655 1.74c.148.578.235 1.423.19 1.994-.17 2.15.001 10.31.267 12.724l.266 2.407h2.947c5.414.329 14.36-.574 15.555-.458.92 0 .878-.746-.062-1.107-.663-.254-.714-.946-.44-5.895.17-3.083.373-6.122.45-6.753.076-.63.17-1.404.21-1.719s.371-.573.737-.573c.557 0 .622.816.401 5.01-.145 2.755-.105 5.798.09 6.762.334 1.655.387 1.535.954-2.144.33-2.143.61-5.16.62-6.705.02-2.715.064-2.817 1.328-3.07 1.66-.332 6.811.38 7.623 1.055.425.353.709.363.914.031.163-.264.615-.48 1.005-.48.608 0 .662.564.39 4.011-.173 2.207-.291 7.762-.263 12.346.031 5.18-.125 8.442-.413 8.62-.688.425-7.733.615-34.176.92-13.113.152-33.23.383-44.703.514-11.474.132-25.092.32-30.261.417s-16.49.208-25.156.245c-13.42.058-15.858-.033-16.44-.616-.541-.54-.726-2.447-.883-9.101-.11-4.629-.377-9.554-.596-10.945-.438-2.79-.18-5.022.61-5.278 1.417-.46 9.43-.515 9.877-.068.27.271.493 1.731.493 3.245 0 4.512 1.042 12.654 1.62 12.654 1.876-.112 4.206-.028 6.29-.269.819-.115 3.227-.26 5.35-.322 2.69-.08 3.923-.296 4.063-.713-.213-2.555.473-6.493.472-9.243-.03-1.639.098-3.65.282-4.47l.336-1.49h7.07c5.496 0 7.07.132 7.07.596 0 .327-.214.81-.475 1.071-.329.329-.312.889.053 1.811.29.735.623 3.812.738 6.838.116 3.026.283 5.736.372 6.023.17.55 4.85.735 8.377.332 4.073-.234 7.95-.245 11.11-.554 1.81-.18 2.287-.673 1.939-2.007-.21-.805-.29-.828-.654-.179-.972 1.738-1.216.366-1.052-5.924.204-7.827.346-8.465 1.877-8.465.949 0 1.06.133.688.827-.244.455-.564 2.673-.71 4.929-.148 2.255-.385 4.669-.527 5.362s-.062 1.26.179 1.26c.44 0 .831-2.535 1.306-8.481.14-1.765.433-3.398.65-3.627.489-.518 16.047-.88 16.782-.39.497.33 1.264 10.51 1.174 15.57l-.034 1.927 2.373.137c1.304.075 3.197-.009 4.206-.186 2.662.015 5.604-.022 8.023-.31q1.72-.14 3.44-.283l.125-7.531c.087-5.148-.036-7.687-.39-8.024-.382-.365-.485.64-.391 3.863.233 8.038.082 9.629-.91 9.629-.758 0-.899-.404-1.032-2.953-.084-1.624-.05-5.08.075-7.68l.23-4.727 2.902.152c3.243-.586 4.831-.159 8.068-.04 2.53.12 5.729-.522 7.4-.502Zm-74.186 1.661q.378-.014.975.307c.848.454.971.949 1.007 4.054.022 1.946.178 5.343.346 7.55.28 3.655.234 4.011-.51 4.011-1.194 0-1.71-1.854-1.71-6.143 0-2.085-.238-4.97-.527-6.412-.455-2.266-.34-3.334.419-3.367m-32.735.544c.232-.002.506.243.748.796.254.582.663 3.637.908 6.789.246 3.152.512 6.144.592 6.648.413 1.163-1.243.87-1.493.243-.23-.43-.544-3.137-.698-6.014s-.39-5.88-.526-6.67c-.19-1.097.082-1.788.469-1.792m135.367 1.623c-.658 0-1.215.155-1.235.344-.021.19-.103.757-.183 1.261-.08.505-.299 1.914-.487 3.132l-.343 2.214 1.328-.15c1.173-.135 1.334-.34 1.373-1.757.024-.883.202-2.378.394-3.324.334-1.637.294-1.72-.847-1.72m-36.548.555c-1.372.026-1.708 1.232-1.447 4.833.244 3.361.473 3.687 2.144 3.045.58-.222.725-1.03.725-4.026 0-3.656-.028-3.75-1.133-3.842a3 3 0 0 0-.289-.01m-38.455.362.262 3.554c.144 1.954.347 3.824.45 4.155.117.378.743.549 1.68.458l1.493-.143-.164-3.668c-.09-2.017-.257-3.823-.37-4.012-.114-.189-.915-.344-1.78-.344Zm-37.16.917c-1.089 0-1.254.628-1.083 4.127.08 1.64.153 3.148.161 3.354.01.284 1.782.022 2.139-.317.033-.031-.045-1.656-.175-3.61-.199-2.998-.362-3.554-1.043-3.554m-30.473.94c-.343-.01-.684.205-.855.65-.246.643.041 4.88.413 6.09.097.316.493.573.879.573.558 0 .702-.605.702-2.942 0-1.619-.125-3.27-.278-3.668-.175-.456-.519-.692-.861-.702m143.846 21.476c.144.272-.059 2.255.042 3.318.161 1.623.085 2.202-.243 1.874-.262-.262-.58-1.402-.708-2.534-.083-1.374.207-2.559.91-2.658m-3.004.226c.612.04.982 1.146 1.14 3.378.145 2.044.045 2.866-.35 2.866-.304 0-.671-.307-.815-.683-.536-1.396-.842-5.17-.44-5.418q.252-.156.465-.143m-14.213.283c1.087 0 1.133.111.998 2.407-.078 1.324-.329 2.665-.557 2.98-.43.595-4.045.805-4.582.267-.434-.433-.38-5.095.06-5.367.771-.477 1.482.536 1.75 2.492.363 2.657.635 2.89.635.545 0-2.594.373-3.324 1.696-3.324m9.063 0c1.022 0 1.688 1.65 1.532 3.8-.116 1.602-.316 1.956-1.172 2.077-.98.14-1.032-.003-1.032-2.865 0-2.34.15-3.012.672-3.012m-3.085.065q.13.001.294.026c.877.125.973.43.973 3.113 0 2.355-.152 3.003-.73 3.114-1.241.24-1.69-.91-1.447-3.706.182-2.092.298-2.55.91-2.547m-2.86.165c.798 0 .936.351 1.057 2.702.155 2.996-.241 3.787-1.452 2.902-.634-.464-.775-1.124-.663-3.097.122-2.155.27-2.507 1.058-2.507m-11.166.017c1.16.013 1.969.052 2.095.13.303.187.482 1.448.437 3.066l-.077 2.747-6.71.126c-7.54.143-7.274.267-7.274-3.387 0-1.23.227-2.112.573-2.221.842-.265 7.478-.494 10.956-.46m20.232.408c.375-.018.6.88.961 3.577.24 1.796-.221 2.572-.957 1.609-.613-.803-.747-4.77-.174-5.125a.36.36 0 0 1 .17-.061m-39 .003c2.362.01 4.032.038 4.373.087l1.49.214v5.46l-4.24.005c-2.333.004-10.122.109-17.309.234-7.187.126-13.79.304-14.672.397s-4.08 0-7.107-.205c-3.026-.206-11.298-.439-18.383-.517-14.239-.158-14.4-.19-14.4-2.977 0-1.042-.172-1.469-.51-1.26-.303.188-.425 1.086-.298 2.212l.213 1.897-10.59-.094c-5.826-.052-11.171-.106-11.878-.122-1.25-.027-1.28-.089-1.146-2.307l.139-2.279 23.612-.232c12.987-.128 28.771-.214 35.075-.191s12.082-.004 12.838-.058c2.391-.17 15.708-.295 22.793-.264m-97.765.466c.27-.014.616.036 1.065.122 1.208.23 1.274.365 1.144 2.365-.131 2.023-.206 2.127-1.628 2.264l-1.49.144v-2.295c0-1.947.102-2.56.909-2.6m66.393 2.282c-.215-.01-.361.436-.361 1.152 0 .772.206 1.403.458 1.403s.459-.504.459-1.12c0-.615-.207-1.246-.459-1.402a.2.2 0 0 0-.097-.033m37.054 3.788c.66.005.89.21 1.15.696.366.685.611.765 1.103.357.385-.32 3.132-.584 7.056-.677 5.986-.142 6.444-.094 6.702.719.152.48.153 1.073.002 1.318-.171.276-5.36.398-13.67.322-7.367-.069-18.76-.01-25.316.131-9.801.21-11.992.144-12.318-.372-.323-.51-.467-.517-.766-.032-.523.846-.31.834-19.125 1.072l-17.08.217-1.326-1.117c-1.674-1.408-1.972-1.403-1.612.03.2.8.1 1.147-.335 1.152-.343.004-1.036.106-1.54.228-.505.122-1.227.037-1.605-.187-.378-.225-5.35-.529-11.05-.675-5.699-.146-10.687-.39-11.083-.542-.757-.29-1.385-1.45-1.066-1.967.178-.287 14.617-.329 22.562-.064 2.046.068 3.954-.022 4.241-.2.287-.176.747-.182 1.021-.013.275.17 2.183.266 4.241.214 8.8-.222 17.93-.148 23.916.196 3.53.203 6.832.352 7.336.332s8.448-.158 17.652-.307 17.828-.438 19.162-.643c.804-.123 1.353-.192 1.748-.189Zm24.512.142c.758 0 .918.245.802 1.225-.167 1.418-1.046 1.91-1.464.82-.52-1.356-.297-2.045.662-2.045m8.237 0c.26 0 .597.323.749.718.301.787-.405 1.78-.909 1.276-.488-.488-.368-1.994.16-1.994m-11.84.004c.42-.023.822.17.822.518 0 .288.34.773.757 1.077.418.305.611.792.432 1.082-.376.608-.752.653-1.464.177-.737-.491-1.574-2.231-1.237-2.569a1.06 1.06 0 0 1 .69-.285m9.216.059q.094.002.202.024c.5.096.803.571.803 1.256 0 1.103-.697 1.704-1.29 1.112-.173-.174-.315-.812-.315-1.419 0-.704.167-.989.6-.973m-2.737.003q.09.003.188.02c.5.097.803.572.803 1.257 0 1.329-.792 1.698-1.587.74-.706-.85-.306-2.036.596-2.017m-9.144.022c.814.043 1.663 1.185 1.343 2.02-.25.652-.831.758-1.868.34-.831-.336-.703-1.968.18-2.307a.8.8 0 0 1 .345-.053m17.268.37c.238 0 .432.31.432.688 0 .71-.541.91-1.058.394-.366-.366.048-1.082.626-1.082m-107.8.917c-.237 0-.432.207-.432.459s.322.458.715.458.587-.206.432-.458c-.156-.252-.478-.459-.715-.459m105.323 2.555c.925-.003 1.663.018 2.16.073.243.67-.453 3.784-.532 5.172-.117 2.204-.285 2.588-1.337 3.084-.856.402-1.372.424-1.79.077-.355-.294-1.547-.374-3.018-.202-4.651.545-10.678.624-11.258.147-.338-.279-.573-1.56-.573-3.129 0-2.9-.301-4.108-1.023-4.108-.297 0-.393 1.424-.263 3.898.113 2.143.087 3.908-.057 3.922s-6.245.083-13.558.154-13.657.287-14.099.482c-.72.317-.802.031-.802-2.818 0-2.078-.232-3.476-.674-4.06-.784-1.037-.798-.981-.874 3.237l-.057 3.209-16.164-.025c-10.93-.017-16.323-.185-16.658-.52-.272-.272-.55-2.065-.617-3.986-.101-2.917 0-3.507.612-3.576 1.286-.146 16.333-.312 51.311-.568 7.124.818 22.797-.435 29.271-.463m-130.225.467c1.292.015 3.027.063 4.894.14 3.733.152 6.93.138 7.106-.032s1.445-.101 2.82.152c1.492.275 8.295.382 16.882.265 7.911-.109 14.833-.112 15.382-.007.948.18.992.39.85 4.09v-.001l-.15 3.9-9.36-.147c-5.148-.082-9.848-.277-10.444-.435s-3.259-.286-5.916-.286-5.06-.142-5.339-.315c-.287-.177-.508-1.61-.508-3.293 0-1.64-.178-2.87-.397-2.734-.22.135-.293 1.726-.163 3.536l.235 3.291-1.098-.353c-1.515-.487-9.026-1.027-13.593-.977l-3.782.042v-3.297c0-1.813.155-3.382.344-3.486.094-.052.944-.069 2.237-.053m-2.437 7.53 3.022.194c1.663.107 5.293.447 8.067.755 2.774.309 5.518.55 6.098.538.607-.014.971.199.86.502a.664.664 0 0 1-.755.397c-.422-.098-.522 1.09-.404 4.814l.157 4.944-2.45.018c-1.346.01-2.742-.197-3.1-.459s-.78-1.56-.936-2.883c-.157-1.324-.49-2.407-.739-2.407-.425 0-.225 2.324.424 4.929.272 1.091-.624 1.442-1.484.582-.247-.248-2.187-.564-4.31-.702-2.122-.14-3.971-.366-4.11-.505-.138-.138-.271-2.605-.296-5.484Zm131.438 1.828h2.633l.245 4.47c.135 2.459.112 4.599-.052 4.755-.163.157-1.39.406-2.724.554-2.228.247-2.458.183-2.825-.783-.65-1.712-.933-7.762-.393-8.413.289-.348 1.545-.583 3.116-.583m-7.074.084c1.937-.037 2.645.22 2.289.796-.122.197-.065 2.153.128 4.346.236 2.688.19 4.12-.143 4.395-.27.225-2.081.553-4.023.729-2.815.255-3.572.19-3.735-.316-.113-.35-.322-2.629-.464-5.065l-.258-4.43 3.853-.32a38 38 0 0 1 2.353-.135m-9.484.037c.177-.019.44.064.882.18 1.215.318 1.346 1.074.186 1.074-.454 0-1.097.258-1.428.573-.492.47-.54.365-.264-.573.269-.91.328-1.223.624-1.254m-88.327.178c.494 0 1.03.009 1.587.03 2.222.08 21.99.234 43.93.342 32.567.159 39.847.304 39.665.793-.123.33-.24 1.94-.258 3.58-.02 1.639-.073 3.637-.12 4.441l-.086 1.462-5.846-.27c-3.448-.158-5.984-.475-6.183-.773-.185-.277-.34-1.794-.343-3.37-.004-1.6-.21-2.866-.466-2.866-.451 0-.59 1.053-.655 4.95l-.033 1.971-13.755.175c-7.565.096-14.167.24-14.672.321-.783.126-.961-.187-1.224-2.144-.169-1.261-.44-2.912-.6-3.668-.162-.757-.391-1.849-.51-2.426-.325-1.594-1.165-.695-.906.971.124.8.354 3.26.513 5.467.194 2.697.129 4.011-.197 4.011-.267 0-.375-.288-.24-.64.136-.354.052-.763-.187-.91-.238-.148-3.914-.377-8.17-.511-9.114-.286-7.913-.28-11.74-.065-2.066.116-3.242-.012-3.553-.387-.257-.309-.6-2.14-.763-4.068s-.472-3.506-.687-3.506-.392 1.731-.392 3.847c0 3.61-.064 3.864-1.031 4.103-1.203.296-12.953-.02-14.085-.38-.602-.191-.887-1.281-1.327-5.065-.308-2.651-.461-4.98-.34-5.177.09-.146 1.191-.236 2.674-.238m-16.518.81a.3.3 0 0 0-.092.037c-.252.156-.458.58-.458.944 0 .363.206.66.458.66s.458-.424.458-.943c0-.454-.157-.739-.366-.699m9.724.264c.157.01.27.127.27.373 0 .204-.302.771-.673 1.261-.687.909-.924.4-.423-.906.18-.468.563-.746.826-.728m2.989 4.5c.146.012.28.142.371.415.073.218-.185.802-.572 1.296-.677.864-.699.849-.578-.377.08-.824.457-1.363.779-1.334m-22.663 4.12 2.064.302c1.134.166 4.539.49 7.565.72s5.539.426 5.584.433.355.286.688.618c.445.442.567 1.856.46 5.29l-.146 4.688-4.439-.102c-2.442-.055-5.57-.254-6.95-.44-1.382-.185-2.674-.237-2.87-.115-.198.122-.738.1-1.203-.047-.761-.241-.84-.807-.798-5.807Zm18.825 1.01c.112 0 .203.207.203.46 0 .251-.218.458-.485.458s-.359-.207-.203-.459.374-.458.486-.458m114.658.233c.4-.004.64.005.68.03.155.096.292 4.358.304 9.47.012 5.27.227 9.828.497 10.524.406 1.05 1.092 13.762 1.182 21.923l.028 2.519-5.731.802c-3.153.442-6.863.752-8.247.69l-2.516-.111-.409-1.834c-.224-1.009-.437-3.588-.474-5.731-.12-7.144-.272-9.17-.682-9.17-.834 0-1.535 6.062-1.367 11.822l.169 5.83-13.411.081-13.411.083-.087-1.687c-.048-.928-.099-4.453-.114-7.834-.022-4.743-.17-6.195-.65-6.358-.444-.152-.536.054-.323.725.186.585.055 1.08-.347 1.316-.908.533-1.275 6.047-.677 10.169.39 2.68.368 3.448-.103 3.74-.977.603-30.205.438-30.593-.173-.182-.287-.445-4.386-.584-9.11-.244-8.302-.658-10.542-1.66-8.988-.217.337-.352 4.585-.3 9.44l.095 8.825-2.273.022c-7.756.074-10.047.031-14.068-.263-2.465-.18-4.674-.44-4.909-.58s-2.544-.274-5.131-.3-4.858-.202-5.046-.39c-.344-.345-.443-3.23-.285-8.347.179-5.783-.07-8.226-.855-8.38-.574-.112-.822.403-1.102 2.284-.577 3.878-.604 16.405-.036 16.756.27.167 4.18.353 8.687.413s8.328.243 8.488.404.292 5.21.292 11.222v10.93l-8.174-.08c-4.495-.043-8.232-.135-8.303-.205s-2.273-.173-4.893-.229l-4.764-.103V197.43c0-6.43-.175-11.962-.389-12.293-.682-1.056-2.491-1.443-7.21-1.538-2.6-.053-4.731-.303-4.899-.574-.392-.635-.272-31.73.126-32.374.17-.274.857-.393 1.526-.262.67.13 4.21.37 7.866.532s6.734.378 6.84.479c.107.101.15 1.267.096 2.59l-.096 2.404 4.071.065 4.072.064-.041-2.586-.041-2.586 4.355.135c2.396.074 7.245.33 10.775.57 12.172.823 15.622.95 25.317.935l9.728-.015-.43 1.128c-.435 1.147-.33 4.655.26 8.594l.325 2.177-15.733-.252c-8.654-.138-15.876-.34-16.05-.447-.302-.186-.578-1.742-1.16-6.52-.146-1.198-.364-2.482-.484-2.853-.376-1.166-1.027.404-.834 2.012.094.778.273 2.797.399 4.487l.228 3.073-3.305-.007c-2.113-.003-3.676-.247-4.336-.676-.642-.417-1.032-.481-1.032-.17 0 .344-1.108.408-3.553.202a326 326 0 0 0-5.846-.44c-3.63-.223-8.381-.685-12.68-1.232-4.157-.53-6.54-.276-6.227.662.313.94 3.605 1.397 15.074 2.092 3.945.24 7.762.56 8.483.713.72.153 4.715.386 8.876.516s11.279.44 15.818.69c10.232.56 25.144 1.035 29.115.924 1.639-.045 6.487-.162 10.774-.258 4.287-.097 11.199-.41 15.36-.694 4.16-.286 11.124-.583 15.474-.661s7.91-.268 7.91-.421v-.979c0-.384-.488-.885-1.084-1.111-.596-.227-1.244-.789-1.44-1.25-.314-.741-.388-.706-.655.31-.29 1.107-.492 1.163-6.012 1.657-7.76.695-18.739 1.117-20.713.796-1.389-.225-1.691-.506-2.134-1.984-.284-.947-.516-2.446-.516-3.33 0-2.313-.499-4.475-1.032-4.475-.412 0-.365 1.833.23 8.94.096 1.148-.038 1.352-.803 1.232-.504-.08-5.146-.24-10.316-.355s-9.64-.295-9.936-.4c-.538-.192-.84-2.208-1.252-8.398l-.223-3.337 8.8.034c4.84.019 10.658-.07 12.927-.195 2.27-.126 6.654-.36 9.743-.52l5.617-.292v4.97l2.636-.176c4.867-.325 4.854-.317 4.518-2.85-.22-1.659-.137-2.277.33-2.457.344-.132 2.721-.388 5.282-.57 2.561-.18 4.657-.516 4.657-.743 0-.78-1.203-.874-5.278-.41-3.143.356-4.162.334-4.438-.1-.196-.31-.36-2.643-.364-5.184l-.007-4.62 7.22-.495c2.979-.204 5.623-.336 6.824-.349Zm-24.669.752c.284-.009.6.002.956.025l2.103.137v10.546l-2.641.137c-3.24.17-3.294.07-2.98-5.441.248-4.343.58-5.345 2.562-5.404m-27.29.186c10.016-.005 23.34.15 23.57.38.236.235.2 9.997-.038 10.234-.063.063-3.3.224-7.194.358-3.893.133-8.047.33-9.229.434-2.028.18-2.161.122-2.379-1.034-.127-.674-.223-2.95-.213-5.055.01-2.195-.197-4.044-.485-4.333-.517-.516-.68 1.49-.692 8.506-.003 1.702-.167 3.095-.367 3.095s-.363-.232-.363-.515c0-.36-1.629-.474-5.387-.38-7.837.197-9.852.077-9.635-.576.102-.304.789-.887 1.528-1.295 1.744-.962 1.976-3.181.703-6.721-.51-1.42-.84-2.722-.732-2.896.084-.138 4.904-.198 10.913-.202m-47.244.149 7.593.285c4.176.156 7.772.396 7.99.53.218.136.25.897.071 1.692-.179.796-.346 2.994-.37 4.885l-.046 3.439-2.98.03c-4.306.044-10.608-.221-11.807-.497-.973-.225-1.03-.464-1.025-4.242.004-2.201.134-4.48.29-5.063Zm-9.702.022 4.217.132c3.905.122 4.21.2 4.122 1.049a375 375 0 0 0-.41 4.928c-.172 2.207-.439 4.04-.592 4.074-.812.182-4.18.149-5.78-.056l-1.834-.235-.141-3.439c-.077-1.891-.014-4.117.139-4.946Zm30.066.358c2.692.04 6.512.386 6.83.705.188.188-.001.72-.42 1.182-1.245 1.376-.973 4.413.647 7.245.775 1.353 1.136 2.365.803 2.247-.334-.118-2.342-.425-4.464-.683-3.12-.378-4.105-.343-5.158.182-.715.357-1.32.613-1.345.57s-.123-2.585-.22-5.647l-.176-5.569 1.482-.17c.255-.03.578-.05.95-.059a29 29 0 0 1 1.07-.003Zm-36.526.15c.2.003.52.203.876.631.346.418.375.748.08.93-.252.156-.682-.135-.956-.647-.318-.595-.258-.919 0-.915m99.264 1.819q.15.005.429.062c.475.092.95.425 1.055.74.272.818-.578.71-1.305-.167-.4-.48-.48-.644-.18-.635Zm-50.67.917a.46.46 0 0 1 .458.458.46.46 0 0 1-.458.459.46.46 0 0 1-.459-.459.46.46 0 0 1 .459-.458m49.93.432c.095-.01.207.034.323.15.152.153.19.539.084.857-.156.466-.263.466-.552-.002-.287-.464-.143-.975.144-1.005m-97.69 2.34c.149-.016.355.074.593.313.277.276.42.75.32 1.051-.126.38-.375.318-.805-.2-.488-.588-.436-1.131-.108-1.165m-1.07 2.271a.69.69 0 0 1 .687.688c0 .716-.542.91-1.07.382-.527-.527-.333-1.07.383-1.07m2.636.472c.921.012.946.065.23.482-.442.257-.803.766-.803 1.132s-.229.665-.508.665-.382-.326-.23-.725c.154-.399.28-.915.28-1.146 0-.232.464-.415 1.031-.408m107.19 3.001c-.057-.026-.113 0-.169.088-.443.697-.522 7.182-.095 7.873.695 1.125 1.162.332 1.13-1.92-.043-3.078-.465-5.859-.865-6.041Zm-108.424.654c.111 0 .202.206.202.458s-.218.459-.485.459-.358-.207-.202-.459.374-.458.485-.458m-18.973 32.268c.871-.001 2.716.115 4.756.308 3.93.373 5.032.347 5.365-.122.263-.37.32.245.151 1.653-.147 1.233-.267 3.141-.267 4.24 0 1.472-.181 2-.687 2-.86 0-.887.64-.057 1.33.487.403.631 2.15.63 7.62l-.002 7.098h-1.699c-.934 0-1.796-.097-1.914-.215-.119-.118-1.64-.339-3.38-.49-1.742-.151-3.332-.377-3.534-.501-.452-.28-.335-22.597.12-22.879.045-.028.228-.041.518-.042m135.397.68c.932-.013 1.062 1.382 1.354 8.89l.416 10.658c.06 1.53-.08 1.843-.846 1.902-.504.038-1.742.21-2.75.38-2.19.37-3.203-.32-2.473-1.684.29-.543.355-3.137.174-6.922-.159-3.33-.325-7.497-.37-9.262l-.083-3.207 1.834-.276c1.009-.152 2.04-.332 2.293-.4.168-.046.318-.076.451-.078m-6.83.687c.41.008.656.06.66.163.004.198.07 4.59.142 9.759s.297 9.863.5 10.43c.336.939.23 1.033-1.174 1.043-.849.005-2.369.204-3.378.439-3.086.72-18.543 1.593-19.059 1.077-.251-.251-.55-3.432-.664-7.067-.208-6.668-.575-11.472-.9-11.797-1.163-1.164-1.526 4.7-.662 10.69.255 1.764.581 4.55.725 6.189l.26 2.98-7.73.117c-4.253.064-9.486.273-11.63.464-2.143.191-5.008.273-6.366.18l-2.469-.17.289-3.505c.698-8.502.883-17.489.36-17.489-.289 0-.525.413-.525.917s-.256.865-.57.802c-1.186-.238-1.635 11.3-.625 16.01.335 1.555.481 2.997.328 3.209-.271.37-3.48.695-3.791.384-.198-.198-17.469-.78-25.504-.86-4.857-.048-6.186-.2-6.55-.748-.274-.41-.355-2.449-.201-5.043.318-5.383.294-12.95-.049-15.245l-.257-1.72 2.448.004c3.342.004 5.92.75 5.588 1.618-.156.406.013.672.428.672.377 0 .656-.361.621-.802-.074-.938 1.253-.979 10.94-.342 3.279.216 7.154.378 8.612.36 2.503-.03 2.634.024 2.351.95-.165.539-.506 1.238-.758 1.553-.344.43-.157.573.744.573.96 0 1.202-.219 1.202-1.09 0-2.131.882-2.344 10.043-2.415a2216 2216 0 0 0 15.677-.185c3.934-.065 7.368.016 7.633.178.264.163 1.584.07 2.934-.207s4.732-.565 7.514-.64 5.877-.343 6.878-.595c2.047-.517 4.754-.87 5.984-.841m8.506 22.76c.283 0 .867 9.835 1.012 17.04.038 1.933.225 3.67.414 3.859.19.19.344.883.344 1.542v1.197l-8.368.825c-4.603.453-8.808.91-9.347 1.014s-1.18-.066-1.427-.379-.468-3.675-.49-7.473-.252-7.82-.51-8.94-.473-3.093-.48-4.384l-.01-2.347 4.929-.298c2.71-.165 5.325-.306 5.809-.313s2.444-.312 4.356-.678 3.607-.665 3.768-.665m-138.047.341 1.936.302c7.052 1.102 8.953 1.284 14.087 1.348l5.731.072v10.087c0 5.548.16 10.523.356 11.057.318.87.155.996-1.594 1.231-1.094.147-2.203.05-2.527-.22-.422-.35-.661-.267-.88.306-.17.44-.05.942.273 1.142.559.345 11.925 1.218 13.313 1.022 1.561-.22 7.791-.252 8.002-.04.125.124.266 3.362.312 7.193l.083 6.965h2.706c1.913 0 2.611.153 2.382.524-.178.288-.345 1.578-.37 2.865l-.048 2.342-2.89.23q-4.352.346-5.171-.98c-.162-.26-.326-4.318-.367-9.018s-.255-8.726-.476-8.948c-.76-.76-1.13 2.656-1.156 10.692l-.027 8.024-1.834-.028c-4.715-.073-13.47-.747-15.011-1.156-1.809-.478-2.19-1.18-2.091-3.86.027-.756-.079-4.631-.237-8.612l-.287-7.239 1.248-.488c1.222-.48 1.192-.507-1.37-1.332-1.44-.464-4.639-1.066-7.108-1.337-2.468-.272-5.132-.611-5.92-.755l-1.432-.261.213-6.265c.118-3.445.2-8.199.183-10.564Zm117.446 1.722-.07 5.604c-.04 3.082.171 8.187.468 11.345.63 6.69.48 7.11-2.479 7.013-2.393-.078-8.499.476-9.059.822-1.012.626-.367 1.58 1.072 1.587.82.003 1.738.165 2.041.357.386.245.636 3.306.835 10.194.156 5.415.393 10.5.527 11.299l.244 1.453-5.935.043c-5.705.04-6.005-.007-7.727-1.179-.985-.67-2.461-1.5-3.281-1.845-1.445-.607-2.08-1.99-.913-1.99.317 0 2.431.927 4.7 2.06 4.676 2.334 4.351 2.214 4.351 1.608 0-.252-.258-.471-.573-.488s-2.533-1.212-4.929-2.653c-3.127-1.881-4.397-2.907-4.502-3.637-.08-.558.074-1.016.344-1.016s.49.293.49.651c0 .38 1.004.98 2.408 1.44 1.323.432 3.29 1.274 4.371 1.87s2.113 1.08 2.293 1.078c.57-.007-5.266-3.569-6.118-3.734-.448-.087-.894-.398-.992-.69-.24-.722 2.505-1.284 3.25-.665.982.815 3.958 1.926 3.958 1.477 0-.23-.722-.845-1.604-1.366-.998-.589-1.605-1.3-1.605-1.879 0-.513.064-.933.141-.933.078 0 1.78.823 3.783 1.828 3.896 1.955 5.63 2.402 3.817.985-1.851-1.448-6.079-3.5-7.21-3.5-1.213 0-2.253-2.186-2.675-5.617-.283-2.302.23-2.476 3.06-1.032.99.504 2.065.911 2.39.903.814-.02-.811-1.23-3.156-2.35-2.556-1.22-2.937-2.22-.844-2.22 1.063 0 1.939.37 2.715 1.145 1.334 1.335 2.667 1.61 1.488.308-1.093-1.207-.953-1.454.82-1.454.867 0 1.679-.164 1.803-.365.33-.535-.294-1.324-1.089-1.373a64 64 0 0 1-2.516-.262c-1.106-.134-1.957-.014-2.153.303-.237.383-.81.395-2.123.045-2.396-.64-3.014.225-2.407 3.362.233 1.203.534 3.89.67 5.97l.248 3.783h-1.444c-1.184 0-4.169.752-4.897 1.235-.1.065.026.381.278.703.658.838 1.421 5.374 1.784 10.602.35 5.051.225 5.312-2.57 5.348-3.103.04-.318.79 4.126 1.112 2.396.172 5.08.502 5.965.732l1.609.417-.12 2.878c-.067 1.583.01 4.9.17 7.372.275 4.236.347 4.487 1.26 4.356.671-.096 1.04-.56 1.202-1.514.218-1.277.392-1.386 2.41-1.516 1.928-.123 2.176-.26 2.176-1.198 0-1.094-2.401-3.076-4.47-3.69-.713-.212-1.032-.66-1.032-1.453 0-1.405.692-1.253 4.986 1.097 1.728.946 2.841 1.342 2.724.97-.11-.346-.806-.95-1.548-1.341a57 57 0 0 1-2.952-1.718c-.883-.553-1.966-1.006-2.407-1.007-.556-.002-.803-.364-.803-1.179 0-1.01.146-1.132 1.032-.855 1.54.481 5.41 2.363 7.128 3.465 1.462.938 2.315.942 1.738.008-.542-.877-8.277-4.7-9.083-4.49-.667.175-.815-.08-.815-1.4 0-1.601-.01-1.61-1.641-1.304-1.283.24-1.81.121-2.407-.544-.421-.469-1.437-1.32-2.256-1.893-.82-.572-1.49-1.233-1.49-1.468 0-.902 2.238-.367 4.096.978 3.663 2.654 11.034 6.592 11.034 5.895 0-.482-2.05-1.88-4.585-3.13-1.135-.56-2.785-1.61-3.668-2.334-1.439-1.18-1.515-1.35-.74-1.65.476-.183 1.198-.1 1.605.186 1.597 1.12 3.715 1.996 4.276 1.77.325-.13.148-.253-.392-.273-.775-.028-1.54-.815-1.54-1.586 0-.054.774-.102 1.72-.105 5.202-.02 11.436-.368 12.036-.673.378-.192 4.49-.6 9.138-.908 4.648-.307 9.467-.827 10.708-1.154 1.457-.385 2.637-.45 3.333-.185 1.049.398 1.076.552 1.054 5.834-.012 2.983.122 6.59.3 8.013l.323 2.588-1.768.452c-2.057.526-16.126 1.68-16.456 1.35-.397-.396-1.489-11.095-1.277-12.515.19-1.277-.848-3.52-1.38-2.98-.42.425-.539 9.837-.163 12.885l.372 3.029-3.884.242c-4.09.255-5.097.554-4.596 1.364.207.335 2.004.393 5.624.18 2.926-.173 7.716-.428 10.644-.566l5.326-.25.29 5.885c.16 3.238.415 7.125.568 8.638l.276 2.75-9.443.062c-5.194.035-10.322.189-11.395.343-2.517.363-3.113-.068-3.142-2.272-.042-3.195-.407-4.322-1.399-4.322-.828 0-.906.285-.839 3.095.04 1.702-.071 3.662-.25 4.355-.266 1.035-.17 1.27.531 1.304 2.356.118 7.24.009 10.829-.244 3.095-.218 4.013-.149 4.02.303.005.323.413 4.3.908 8.839s.904 8.698.91 9.242c.008.97-.13.99-7.406 1.037-4.097.026-8.2.282-9.17.573-1.415.424-1.91.4-2.558-.12-1.383-1.11-2.818-1.791-3.777-1.791-.75 0-.923-.302-.923-1.605 0-.883.122-1.605.273-1.605.15 0 2.007.945 4.126 2.1s3.853 1.9 3.853 1.653c0-.45-2.73-2.287-6.262-4.211-1.992-1.086-2.943-3.05-1.706-3.524.347-.133 2.643.889 5.102 2.27 5.271 2.962 6.933 3.814 6.305 3.236-1.675-1.546-4.833-3.816-5.307-3.816-.311 0-1.257-.527-2.101-1.17-.844-.644-2.155-1.388-2.912-1.652-1.373-.478-2.228-2.123-1.618-3.11.382-.618 1.949.183 7.583 3.876 5.685 3.726 7.225 4.477 4.98 2.43-1.843-1.68-4.35-3.335-9.243-6.105-2.413-1.367-3.325-2.156-3.575-3.094-.315-1.184-.262-1.242.886-.967 1.792.43 4.344 1.787 8.678 4.611 2.117 1.38 3.948 2.41 4.07 2.29.595-.597-6.82-5.645-10.955-7.459-2.333-1.023-2.16-1.571.497-1.571 2.426 0 2.89-.22 2.518-1.191-.15-.392-.912-.643-1.95-.643-1.243 0-2.117-.37-3.242-1.376-.848-.756-1.916-1.375-2.375-1.375-.585 0-.835-.344-.835-1.146 0-1.427.597-1.438 3.467-.062 2.66 1.275 4.328 1.836 4.328 1.456 0-.15-.465-.473-1.032-.72s-1.96-1.156-3.095-2.021-2.527-1.586-3.095-1.603c-.834-.025-1.031-.294-1.031-1.406 0-1.525.987-1.85 2.256-.744 1.208 1.053 5.04 2.554 5.33 2.086.146-.237-.108-.566-.566-.729s-2.327-1.427-4.155-2.81c-2.766-2.093-3.324-2.735-3.324-3.827 0-1.476-.054-1.488-5.694-1.318-2.957.089-4.851.672-4.851 1.492 0 .191 2.192.348 4.871.348h4.872l-.325 1.49c-.575 2.638-.264 8.278.503 9.125.384.424.63 1.252.546 1.84-.143 1.014-.354 1.076-4.048 1.185-2.144.064-4.362.222-4.93.353-1.846.425-1.09 1.064 1.606 1.356 1.45.157 4.029.5 5.73.762l3.096.477.005 2.825c.003 1.553.312 5.713.687 9.243s.682 6.522.682 6.648-2.117.247-4.706.27c-4.607.04-7.088.655-6.498 1.61.156.252 1.47.415 2.92.363 1.45-.053 2.867.047 3.148.22.635.393.2 1.664-.57 1.664-.422 0-.527 1.298-.417 5.158.081 2.837.257 5.932.39 6.877l.244 1.719h-2.956c-3.239 0-3.154.08-3.685-3.44-.489-3.24-.756-9.368-.89-20.414-.1-8.159-.288-11.063-.77-11.92-.59-1.053-.659-.829-.942 3.097-.168 2.328-.122 7.28.102 11.004.632 10.517.783 18.005.363 18.005-.21 0-.72-.517-1.135-1.148-.62-.947-.648-1.274-.162-1.86.482-.582.48-.687-.008-.572-1.087.255-1.287-2.158-1.191-14.37.054-6.917-.16-15.022-.5-18.96-.802-9.304-1.517-23.58-1.22-24.353.568-1.482.972.156 1.282 5.204.182 2.967.403 6.22.49 7.229s.283 3.381.436 5.272c.47 5.825.759 7.996 1.158 8.712.859 1.537.934-.997.254-8.531-.385-4.26-.821-10.325-.97-13.477s-.365-6.195-.48-6.763c-.263-1.295-1.567-1.368-1.567-.087 0 .519-.181.832-.403.695s-.637-2.677-.922-5.644-.725-6.663-.976-8.214c-.25-1.552-.342-3.119-.202-3.483s-.062-1.572-.449-2.682c-.386-1.11-.698-2.432-.691-2.936.01-.807.086-.779.621.229.94 1.767 1.634 5.133 2.528 12.275.769 6.131 1.083 7.462 1.637 6.908.647-.647-2.016-20.243-3.261-23.997-.418-1.261-1.3-2.88-1.958-3.596-1.254-1.365-4.148-3.053-5.235-3.053-.35 0-1.277-.32-2.061-.71-.929-.464-2.352-.664-4.082-.574-2.263.118-2.657.268-2.657 1.016 0 .482-.272.968-.604 1.08-.384.129-.551-.107-.459-.648.124-.722-.123-.834-1.632-.743-2.093.127-2.617.51-4.868 3.56-2.091 2.832-3.413 5.768-4.166 9.252-.317 1.468-.63 2.741-.698 2.83-.066.088-.908-.26-1.87-.772-2.331-1.243-4.345-1.78-7.993-2.135l-3.034-.295-.219-6.829c-.134-4.174-.425-7.077-.749-7.467-.41-.494-2.078-.637-7.383-.63-4.607.005-7.068-.169-7.506-.533-.586-.486-.94-5.09-.816-10.615.115-5.131-.046-8.483-.443-9.225-.9-1.683-.139-1.908 5.248-1.55 10.102.672 11.101.716 14.038.628 1.64-.049 3.393-.069 3.897-.044 2.549.127 28.83.596 31.407.56 15.202-.21 26.355-.545 30.949-.929l6.811-.566Zm-37.782 3.531c-.544.072-1.286.62-1.286 1.103 0 .868 1.338.814 1.676-.068.15-.389.173-.806.052-.928-.102-.102-.261-.13-.442-.107m-19.5.22c-.724-.02-.746.297-.639 2.21.071 1.261.62 3.53 1.221 5.044.6 1.513 1.422 4.178 1.825 5.922s1.045 3.775 1.427 4.513c1.03 1.992 1.286 1.187.654-2.057-.308-1.582-.753-3.88-.988-5.108-.236-1.227-.842-2.811-1.347-3.52-.506-.71-.729-1.409-.495-1.553.538-.333.12-2.093-.731-3.08-.94-1.09-.293-1.255 3.074-.78 3.172.447 11.935.26 12.797-.273 1.544-.954-.865-1.31-7.753-1.146-2.175.052-7.569-.04-8.689-.147a6 6 0 0 0-.355-.025Zm-13.804.812a.2.2 0 0 0-.084.027c-.183.113-.38 2.531-.438 5.373-.254 12.284-.107 11.113-1.415 11.265-.645.075-2.04-.058-3.098-.296-1.884-.423-2.955-.023-1.819.68.316.195 1.918.598 3.561.895s3.188.497 3.432.446c.793-.168 1.534-6.511 1.599-13.668.016-1.82.161-2.177.884-2.177 1.028 0 5.172 1.196 7.29 2.104 1.945.834 2.493.816 2.31-.08-.147-.723-7.373-3.366-9.318-3.409-.504-.01-1.308-.316-1.787-.679-.418-.317-.885-.513-1.117-.481m41.916 1.353c-1.095.036-2.551.293-4.396.77-2.125.551-4.462.533-4.814-.037-.156-.252-.49-.458-.741-.458-.252 0-.34.193-.193.43.146.236-.008.597-.342.802s-1.184 2.951-1.89 6.104c-.705 3.152-1.378 6.092-1.496 6.533-.43 1.614.65.747 1.426-1.146a740 740 0 0 1 1.374-3.324c1.128-2.702 1.546-4.36 1.32-5.224-.152-.583.055-.968.617-1.146.927-.294 9.026-1.176 9.208-1.002.062.06.212 2.67.333 5.803s.278 6.087.347 6.566c.127.885-.496 1.059-9.86 2.758-1.003.182-1.611.512-1.444.783.163.263 1.02.351 1.962.201 6.234-.991 15.57-1.241 17.965-.48 1.633.517.938-.59-1.278-2.039a146 146 0 0 1-4.18-2.858l-2.002-1.432.315-4.175c.173-2.296.419-4.61.546-5.14.133-.56-.096-1.291-.544-1.74-.403-.402-1.137-.586-2.233-.55m-37.127 4.118c-.165.007-.28.19-.28.485 0 .393.206.715.458.715s.459-.194.459-.432c0-.237-.207-.558-.459-.714a.3.3 0 0 0-.178-.054m42.636.983c-.207-.015-.276.103-.276.348 0 .732 1.678 2.62 2.328 2.62.252 0 1.74.82 3.306 1.824 3.195 2.047 3.077 1.992 3.077 1.437 0-.224-1.34-1.308-2.977-2.407-1.638-1.1-2.98-2.15-2.98-2.332-.002-.183-.622-.652-1.379-1.044-.55-.284-.893-.43-1.1-.446m-1.02 2.534c-.707.032.242 1.158 1.954 2.164 1.17.687 3.175 2.024 4.457 2.97 2.494 1.838 3.058 2.053 3.021 1.146-.023-.546-7.804-5.913-9.024-6.224a1.5 1.5 0 0 0-.407-.056m-.203 2.268c-.794 0-.436 1.77.413 2.04.463.146 2.672 1.492 4.91 2.991s4.167 2.626 4.288 2.506c.283-.284-2.384-2.584-4.88-4.207-1.072-.697-1.949-1.53-1.95-1.851 0-.538-1.77-1.479-2.78-1.479m-14.386 2.751c-.393 0-.715.206-.715.459 0 .252.195.458.432.458s.559-.206.715-.458c.155-.253-.039-.459-.432-.459m13.04 1.376a.46.46 0 0 1 .459.458.46.46 0 0 1-.459.459.46.46 0 0 1-.458-.459.46.46 0 0 1 .458-.458m-91.09 1.158q.4-.01.968.205c.699.266 3.261.802 5.694 1.192s4.623.907 4.868 1.15c.259.256.451 4.472.458 10.095l.012 9.656-1.834-.2c-1.009-.11-2.502-.481-3.318-.823-1.052-.442-1.626-.48-1.973-.133-.583.583-.813 18.412-.267 20.683.398 1.652.556 1.602-3.382 1.077l-2.063-.275-.023-6.419c-.012-3.53.07-8.238.183-10.46l.206-4.04 1.65.14c2.194.19 2.225-.921.048-1.634-1.718-.561-1.642-.287-1.355-4.868.115-1.839-.42-11.58-.73-13.296-.24-1.335.056-2.029.858-2.05m50.386 1.593c-3.2 0-2.19.769 2.038 1.553 2.185.406 4.076.84 4.202.967.387.387 1.911.256 1.911-.164 0-.62-6.005-2.356-8.15-2.356m88.94.206c.192.006.34.045.413.12.197.198.39 1.598.428 3.111.068 2.651.468 6.918 1.376 14.672.564 4.82.336 5.576-1.78 5.899-.922.14-2.422.386-3.332.545-1.994.35-2.218-.156-2.25-5.068-.013-1.766-.234-4.654-.493-6.42-.768-5.22-.914-11.382-.28-11.785.303-.193 1.21-.354 2.012-.357.804-.004 2.023-.221 2.711-.483.43-.163.874-.245 1.195-.235m-8.924 1.594c.394.024.972 8.399.98 14.199.004 2.117.263 4.853.577 6.08.418 1.63.436 2.364.064 2.736-.293.293-3.646.674-7.932.902-4.082.216-8.091.518-8.908.671-2.59.486-2.863-.228-2.923-7.673-.05-6.136-.26-9.559-.8-13.065-.18-1.165-.04-1.512.693-1.745 1.248-.396 6.892-1.117 10.803-1.38 1.765-.119 4.085-.336 5.154-.482 1.07-.146 2.1-.256 2.292-.243m-66.357 1.948c.137-.01.243.014.311.083.263.263-1.281 3.194-1.806 3.428-.19.084-.344.473-.344.865 0 .507.363.345 1.26-.564 1.674-1.692 3.798-2.973 4.93-2.97.504 0 1.523.4 2.263.888.741.489 1.515.784 1.72.658.205-.127.372-.026.372.223s1.032 1.12 2.293 1.937c1.831 1.187 2.292 1.739 2.292 2.742 0 1.064-.156 1.22-1.031 1.024-.887-.199-.844-.1.308.7 1.78 1.238 2.395 2.356 1.579 2.874-.956.605-1.23.506-2.042-.732-.412-.628-.952-1.017-1.2-.863-.249.154-1.004-.128-1.678-.627-1.477-1.092-3.272-1.715-3.272-1.137 0 .533 1.363 1.71 2.408 2.081.856.304 1.123 1.689.325 1.689-.896 0-8.092-4.435-10.399-6.41-.422-.36-.739.169-1.295 2.164a189 189 0 0 1-1.236 4.246c-.923 2.967-.394 39.467.6 41.323.35.657.346 1.09-.018 1.53-.344.414-.405 1.992-.189 4.899.558 7.496.478 13.93-.17 13.801-.314-.063-.572.092-.572.344s.295.459.657.459c.531 0 .667 1.035.705 5.387.025 2.963.222 7.347.436 9.743.413 4.626.167 5.638-1.986 8.138-.938 1.09-1.443 1.272-1.82.66-.127-.204-.23-7.786-.23-16.85 0-9.062-.101-17.51-.226-18.77-.124-1.261-.332-5.594-.461-9.629a958 958 0 0 0-.706-16.276c-1.041-19.734-.685-25.928 1.728-30.016.543-.92.993-1.92 1-2.22.03-1.222 4.176-4.718 5.494-4.822m13.264 2.67c.267 0 .485.206.485.458s-.091.459-.202.459-.33-.207-.486-.459-.064-.458.203-.458m26.734.007c-.686.005-.702.072-.115.452.866.559.917.559.917 0 0-.252-.36-.456-.802-.452m-36.076 0c-.192.019-.28.154-.184.422.084.236 1.494 1.352 3.133 2.479 3.487 2.398 3.21 2.252 3.21 1.684 0-.25-.871-1.023-1.936-1.72s-2.303-1.628-2.751-2.07c-.542-.533-1.153-.825-1.472-.795m-3.21 1.468a.14.14 0 0 0-.084.032c-.28.279.4.903 2.575 2.363 1.718 1.153 2.327 1.172 1.39.044-.734-.885-3.321-2.483-3.882-2.439m13.545.62c.118-.045.593.662 1.15 1.732.636 1.222 1.065 2.314.952 2.427-.267.267-2.158-3.365-2.13-4.091q.001-.058.028-.067m25.456.663c-.914.006-.904.046.17.642 1.544.857 2.067.872 1.376.039-.314-.378-1.01-.685-1.546-.681m-5.414.54c-.36-.019-.63.013-.728.112-.35.35-.395.32 4.02 2.693 4.762 2.56 6.59 2.827 3.147.46-1.353-.929-2.707-1.935-3.01-2.237-.467-.464-2.35-.97-3.43-1.028m-35.674 1.746c.233 0 1.926.978 3.762 2.174s3.83 2.436 4.43 2.755c1.03.547 5.32.815 7.849.49 1.144-.147 1.146-.139 1.015 3.292-.073 1.892-.33 3.507-.574 3.591-.699.242-.513.994.247.994q.687 0 .687 1.376c0 1.976-1.152 1.767-3.852-.699-1.236-1.13-2.526-2.052-2.866-2.052s-.618-.207-.618-.459-.316-.458-.703-.458c-1.39 0 .161 1.678 3.323 3.597 4.623 2.805 4.565 2.732 5.216 6.61.631 3.757.454 4.566-.741 3.371-.95-.95-4.635-3.491-5.062-3.491-.178 0-1.792-1.29-3.585-2.866-4.569-4.014-7.617-6.095-7.617-5.197 0 .388.567 1.065 1.26 1.504s2.5 1.916 4.012 3.282c1.513 1.366 4.402 3.581 6.42 4.923s4.036 2.736 4.487 3.097c.807.646 1.884 3.48 1.477 3.887-.292.291-3.054-1.83-7.172-5.506-1.925-1.719-3.8-3.124-4.17-3.124-.368 0-1.063-.435-1.542-.965s-1.493-1.276-2.25-1.658-1.84-1.118-2.408-1.637c-.853-.78-1.031-.817-1.031-.215 0 .78 4.337 4.475 5.253 4.475.676 0 6.29 4.251 10.442 7.907 2.077 1.828 3.078 3.042 3.06 3.709-.05 1.903.498 11.092.762 12.76l.265 1.68-1.982-.24a53 53 0 0 1-3.702-.6c-1.508-.316-1.719-.254-1.719.508 0 .477.155.887.344.91s1.235.109 2.324.189c2.923.213 4.074.589 4.4 1.436.16.416.177.87.038 1.01h-.001c-.471.47-8.355.648-8.636.194-.506-.82-1.166-6.72-1.365-12.204l-.197-5.437 1.698.271c1.148.184 1.983.052 2.578-.405.848-.652.818-.732-.792-2.171-.92-.822-2.847-2.422-4.285-3.557-1.437-1.135-3.556-2.94-4.708-4.012s-2.421-1.955-2.821-1.964c-1.476-.03-2.332-1.178-2.332-3.13 0-1.044.214-1.898.475-1.898.303 0 .325-.29.062-.802-.226-.442-.543-1.665-.704-2.719l-.291-1.916 2.177.239c1.197.131 2.28.396 2.407.587.126.191.701.595 1.277.898.982.518 1.028.48.752-.62-.27-1.076-.17-1.172 1.246-1.202a41 41 0 0 0 3.312-.247c1.142-.139 2.155.036 2.85.49 1.356.89 1.567.885 1.567-.034 0-.544.306-.683 1.147-.522.902.172 1.146.03 1.146-.665 0-.78-.257-.858-2.178-.663-1.198.122-2.178.26-2.178.308s-2.27.16-5.043.251c-2.774.092-5.458.268-5.964.392-1.675.41-2.288-.381-1.805-2.331l.433-1.745 2.292.112c1.261.062 2.963-.002 3.783-.142 2.745-.471 1.528-1.002-2.183-.952-3.188.043-3.71-.062-3.941-.793-.346-1.09.193-3.971.743-3.971m24.997 4.792c-.49.006-1.162.372-1.162.758 0 .225.413.41.917.41.894 0 1.195-.487.643-1.039-.091-.091-.235-.13-.398-.129m-42.825.251h1.428c.785 0 2.783.437 4.44.97l3.013.97-.107 7.856c-.058 4.32-.19 8.203-.293 8.628s.092 3.004.433 5.731c.544 4.354.977 22.901.544 23.334-.089.089-2.594.206-5.565.26-3.917.071-5.5-.059-5.756-.474-.425-.688-.27-15.538.177-16.945.283-.893.636-.986 3.72-.986 3.328 0 4.23-.453 2.606-1.307-.643-.339-7.946-1.126-11.119-1.2-.66-.015-1.04-3.638-1.314-12.509-.058-1.85-.131-1.948-1.45-1.948h-1.387l.251 3.094c.139 1.703.48 4.746.757 6.763.764 5.557.782 5.526-3.166 5.344-2.183-.101-3.32.018-3.32.346 0 .275.504.5 1.12.5h1.118l-.214 6.075a553 553 0 0 0-.262 9.858c-.03 2.4-.235 3.813-.56 3.867-.283.047-2.06.101-3.952.12s-3.852.142-4.356.275c-1.25.332-7.098.014-7.142-.387-.019-.177-.094-4.139-.167-8.804-.072-4.665-.286-9.185-.475-10.044l-.343-1.563 3.49.296c1.92.162 3.49.117 3.49-.101 0-.932-1.395-1.356-5.272-1.6-5.26-.332-6.933-.67-7.664-1.55-.42-.506-.616-2.998-.683-8.732-.051-4.413-.31-8.641-.573-9.397s-.479-1.571-.479-1.811c0-.507 3.07-.221 5.731.534 1.009.286 3.692.524 5.963.527s4.36.153 4.642.332c.34.217.596 3.824.763 10.741.138 5.728.382 10.629.543 10.89.356.576 3.907.638 3.907.068 0-.222-.412-.513-.917-.644-.789-.207-.923-.646-.961-3.148-.195-12.706-.469-15.507-1.633-16.67-.398-.4-.62-.829-.495-.954.126-.126 2.87-.034 6.1.205 3.228.238 6.09.367 6.358.288.269-.08 2.191-.27 4.272-.423l3.782-.277v2.504c0 1.378-.217 2.64-.483 2.805s-.421.622-.344 1.016c.112.576.98.749 4.38.873 3.984.145 5.08-.174 3.669-1.067-.316-.2-1.597-.47-2.847-.6-2.172-.227-2.288-.31-2.583-1.842-.17-.882-.423-3.513-.562-5.846Zm26.533 1.834c-.51 0-.917.306-.917.688s.408.688.917.688.917-.306.917-.688-.408-.688-.917-.688m5.502 0c-.51 0-.917.306-.917.688s.408.688.917.688.917-.306.917-.688-.408-.688-.917-.688m-12.155.075c-.744.083-.993.837-.361 1.47.534.533 1.741.094 1.741-.634 0-.375-.464-.748-1.031-.828a1.4 1.4 0 0 0-.349-.01Zm8.434.015c-.247-.028-.295.123-.162.47.269.699 1.59.932 1.59.28 0-.21-.086-.382-.191-.382s-.52-.126-.922-.28a1.4 1.4 0 0 0-.315-.088m-3.908 6.377a.3.3 0 0 0-.106.019c-.519.185 4.724 4.838 7.71 6.844 1.098.738 2.224 1.334 2.501 1.327s.181-.203-.214-.434-1.518-1.153-2.497-2.049-1.909-1.629-2.07-1.629-.565-.513-.9-1.139-1.041-1.27-1.568-1.43-1.307-.597-1.734-.97c-.373-.328-.843-.549-1.122-.54m23.948.09c.278-.013.654.142 1.055.504.445.403 1.05.732 1.346.732.295 0 .537.207.537.459 0 .865-2.695.502-3.194-.431-.405-.756-.209-1.242.256-1.264m14.147 6.491a.6.6 0 0 0-.297.075q-.522.323.358.725c.484.22 1.396.7 2.026 1.064 1.506.871 2.093.853 1.35-.042-.772-.931-2.592-1.854-3.437-1.822m-12.501.753c.341 0 .884.138 1.521.411.819.352.785.398-.317.427-.679.017-1.361-.175-1.517-.427-.169-.273-.029-.41.313-.41m-32.9.87c.556 0 2.195 1.129 3.997 2.752.42.378 1.661 1.32 2.757 2.091 4.37 3.081 6.805 4.992 6.805 5.339 0 .2-.99.364-2.2.364-1.987 0-2.447-.219-4.724-2.249-2.321-2.068-5.914-4.101-5.913-3.344 0 .176 1.075 1.042 2.386 1.925 3.867 2.602 5.408 4.119 5.408 5.32 0 1.635-1.18 1.385-4.538-.96-4.728-3.303-4.55-3.016-4.563-7.376-.009-2.872.142-3.861.586-3.861m51.102 8.254c-.252 0-.33.206-.175.458s.49.459.742.459.33-.207.175-.459-.49-.458-.742-.458m-113.97 1.374 1.191.01c2.723.023 10.71 1.303 11.202 1.796.371.371.538 3.583.549 10.596.008 5.536-.094 10.06-.23 10.057-.134-.003-.515-.178-.846-.388s-3.383-.338-6.783-.285l-6.183.095.216-4.637c.119-2.55.366-7.472.55-10.94Zm62.534.328c.734-.002 7.916 4.545 8.735 5.558.316.39.573 1.622.573 2.738 0 2.13-.105 2.185-2.407 1.237-1.54-.634-.812.696.803 1.465 1.272.607 1.605 1.033 1.605 2.057 0 .71-.196 1.29-.436 1.29s-1.632-.722-3.095-1.604c-2.52-1.52-4.144-2.067-3.621-1.22.131.212 2 1.466 4.153 2.786 3.177 1.948 3.916 2.61 3.916 3.512 0 1.35-.446 1.398-1.835.194-.581-.504-1.225-.917-1.431-.917-.207 0-1.536-.53-2.954-1.18-2.451-1.12-3.353-1.218-2.785-.3.456.738 6.437 4.536 7.943 5.045.804.271 2.8 1.409 4.435 2.529s3.918 2.315 5.073 2.656c1.427.421 2.099.87 2.099 1.4 0 .428.125 1.105.278 1.504.404 1.052-.795.916-3.12-.351-3.63-1.98-8.847-5.059-9.079-5.36-.317-.411-5.022-2.734-5.54-2.734-1.082 0-.173.839 2.445 2.257 3.444 1.865 12.204 7.249 13.218 8.123.398.343 1.083.624 1.522.624.565 0 .756.3.652 1.027-.08.564-.456 1.073-.835 1.129-.707.105-4.39-1.897-5.836-3.171-.446-.394-1.818-1.17-3.049-1.723s-3.221-1.698-4.424-2.543c-1.202-.845-2.292-1.43-2.423-1.3-.13.13-.718-.03-1.307-.353-.59-.325-1.394-.54-1.79-.481-.567.085-.829-.685-1.252-3.689-.294-2.088-.527-4.106-.519-4.485.009-.378.025-1.667.037-2.865.016-1.552.207-2.178.665-2.178.853 0 .822-.75-.046-1.083-.764-.293-.96-2.585-.22-2.585.257 0 1.284.516 2.283 1.146s2.062 1.147 2.363 1.147c1.095 0-1.666-2.323-3.367-2.832l-1.747-.523v-2.832c0-1.557.121-2.952.27-3.1q.014-.015.05-.015m40.877.59c1.112 0 3.277 1.089 3.277 1.649 0 .634-1.859.838-3.095.34-.638-.258-.797-1.99-.182-1.99m41.103 1.146.077 2.98c.042 1.64.333 5.612.648 8.828.314 3.216.486 5.924.382 6.017-.104.094-1.377.315-2.828.491-2 .242-2.69.173-2.857-.287-.544-1.505-1.733-9.692-1.932-13.301l-.22-3.984 1.532-.272c.842-.15 2.355-.317 3.364-.372Zm-108.845.453c.757.003 1.703.044 2.873.117l3.884.243-.239 6.012c-.132 3.307-.382 7.944-.557 10.304-.21 2.847-.156 4.345.161 4.447.263.086 3.057.244 6.21.353 3.152.11 6.067.34 6.478.51 1.031.431 1.203 1.993 1.266 11.55.055 8.26.048 8.315-.979 8.59-1.32.355-4.697.372-5.042.027-.146-.146-2.191-.26-4.547-.256-2.355.006-4.6-.083-4.985-.194-.601-.173-.712-1.724-.778-10.821-.06-8.153-.217-10.707-.675-10.998-.328-.208-1.446-.382-2.486-.386-1.865-.007-1.894-.032-2.216-1.955-.18-1.071-.405-5.014-.501-8.76-.097-3.745-.292-7.175-.434-7.622-.267-.84.296-1.172 2.567-1.161m76.75.496a5 5 0 0 0-.539.001c-.994.052-1.263.268-1.157.934.543 3.442.601 7.13.122 7.708-.426.513-.365.752.289 1.132 1.318.767 2.124.63 1.72-.293-.673-1.536-.578-7.168.135-7.995.773-.897.56-1.424-.57-1.487m-48.575.813c-.281.02-.329.269-.039.739.17.274 1.48 1.102 2.913 1.842 3.106 1.603 2.832 1.53 2.832.756 0-.347-.67-.9-1.49-1.227-.82-.326-2.069-.993-2.777-1.48-.644-.444-1.158-.65-1.44-.63m14.436.769c-1.623-.016-3.247.109-3.418.385-.134.217-.143.496-.02.619.193.192 5.7.17 6.77-.028.204-.037.244-.274.088-.526-.173-.28-1.796-.435-3.42-.45m26.374 3.213c-.2.03-.26.208-.146.55.103.31 1.1 1.119 2.215 1.798 2.911 1.772 3.266 1.56.882-.526-1.4-1.226-2.512-1.886-2.951-1.822m-26.357 1.45q-.214-.03-.454.117c-.625.386-.638 1.428-.033 2.56.702 1.31 1.89.642 1.535-.864q-.404-1.715-1.048-1.812m23.81 10.775c.187-.027.435.107.688.453.331.453.506.982.387 1.174-.357.577-.963.394-1.26-.38-.273-.712-.127-1.203.185-1.247m50.47.035c.98-.052 2.253.63 2.253 1.383 0 .544-.13.563-.687.1-.589-.49-.685-.349-.664.975.014.85.43 3.506.927 5.902a668 668 0 0 1 1.773 8.94c.48 2.522 1.31 6.03 1.847 7.795s1.29 4.344 1.676 5.731 1.202 3.424 1.812 4.528c1.316 2.377 1.403 3.543.308 4.104-.44.226-1.753.535-2.914.686-1.969.256-2.152.19-2.69-.968-1.339-2.878-2.916-12.883-3.628-23.022-.186-2.647-.472-5.123-.635-5.502s-.396-2.8-.518-5.38c-.188-4.005-.11-4.753.526-5.11a1.4 1.4 0 0 1 .613-.161Zm-71.866 1.085q.285-.003.645.026c1.152.095 1.72.367 1.72.824 0 .859-1.068 1.022-2.407.369-1.375-.67-1.288-1.203.042-1.22m-3.879.63c1.597.024 6.014 2.145 6.014 3.079 0 1.076-.16 1.04-3.839-.848-2.22-1.14-3.008-1.76-2.666-2.103.092-.091.263-.131.491-.128m69.214.42c1.996.01 3.33.052 3.345.143.034.192.12 1.948.19 3.9s.336 4.53.591 5.73.605 3.647.78 5.437c.282 2.92.227 3.29-.54 3.585-.47.181-4.052.419-7.961.528s-8.185.304-9.504.431c-2.203.213-2.417.147-2.635-.803-.13-.57-.21-1.757-.177-2.64.132-3.62-.653-10.035-1.557-12.716-.53-1.573-.871-2.953-.758-3.066.277-.277 12.236-.558 18.226-.53m9.951 1.824c.5.018 1.126.494 1.126 1.01 0 .352-.18.64-.402.64-.572 0-1.477-1.178-1.154-1.5a.56.56 0 0 1 .43-.15m-136.884.13c2.895-.008 3.015.672 2.349 2.897-.31 1.032-.658 4.703-.774 8.158-.117 3.456-.32 6.954-.454 7.773l-.243 1.49h3.203c1.762 0 3.31.174 3.442.386.131.212-.177 2.637-.684 5.388s-1.042 6.497-1.189 8.325c-.146 1.828-.394 3.342-.55 3.365-.155.023-4.673.075-10.037.115l-9.754.073.199-4.355c.109-2.396.233-4.356.275-4.356.225 0 .487-2.105.501-4.027.031-4.194-1.166-5.532-1.626-1.819a89 89 0 0 1-.7 4.47c-.236 1.261-.55 3.737-.699 5.502-.148 1.766-.474 3.415-.724 3.666-.457.457-9.316 1.054-11.36.765-1.024-.145-1.069-.28-.758-2.292.181-1.176.406-2.654.5-3.285.456-3.076 1.168-6.495 1.578-7.573.25-.66.456-1.903.456-2.765 0-1.255.205-1.608 1.032-1.779 4.603-.95 5.872-1.018 11.118-.588 7.628.625 12.861.764 13.495.359.487-.312.224-.5-1.028-.735-.927-.174-1.983-.202-2.347-.062s-.729.051-.811-.195c-.175-.524-11.904-1.388-13.772-1.014-1.104.22-1.266.112-1.248-.836.022-1.216.508-3.52 1.536-7.278a626 626 0 0 0 1.47-5.502c.429-1.64.86-3.075.957-3.19.098-.114 1.769-.266 3.714-.338s6.012-.315 9.038-.54c1.656-.124 2.93-.202 3.895-.204Zm-24.274.03 2.29.22c1.26.121 2.404.333 2.542.471.263.263-.73 4.07-1.166 4.467-.138.126-.276.745-.306 1.375-.072 1.494-1.153 10.147-1.361 10.89-.094.337-.921.573-2.009.573h-1.848l.02-1.949c.011-1.072.232-2.877.491-4.012.616-2.697 1.371-8.527 1.357-10.488Zm33.16.063c.412 0 .858.006 1.315.023 1.83.065 4.462.15 5.849.188 2.247.061 2.506.17 2.374.987-.082.504-.244 4.734-.361 9.399s-.289 8.706-.382 8.979c-.174.515-3.148.813-3.6.36-.141-.14-2.575-.39-5.408-.556l-5.153-.301.108-8.875c.06-4.881.224-9.178.367-9.548.166-.434.621-.582 1.275-.418.559.14 1.148.122 1.31-.04.121-.12 1.068-.195 2.306-.198m-39.385.336c.883-.073.995 1.184.1 2.09-.857.867-1.277 2.04-1.941 5.42-.322 1.639-1.332 5.043-2.244 7.565-.911 2.522-2.15 6.03-2.752 7.795s-1.41 3.828-1.794 4.584a32 32 0 0 0-1.176 2.637c-.518 1.374-1.653 1.63-2.968.667-.773-.565-.765-.735.175-3.524.543-1.611 1.359-3.402 1.813-3.98s1.293-2.24 1.867-3.697a309 309 0 0 1 1.613-4.023c.314-.757.828-2.408 1.141-3.668s.811-2.706 1.105-3.21c.295-.504.825-1.845 1.178-2.98.837-2.69 2.58-5.352 3.696-5.644a1 1 0 0 1 .187-.032m74.956.632c.602 0 7.053 3.314 7.585 3.896.252.276 1.252.77 2.222 1.1 2.64.894 10.257 5.923 10.525 6.948.372 1.423-.46 1.503-2.552.248a77 77 0 0 0-4.235-2.316c-1.26-.632-3.118-1.667-4.126-2.3s-2.144-1.281-2.522-1.44-1.802-.782-3.165-1.385c-4.505-1.993-3.314-.201 1.331 2.001 1.387.658 3.292 1.678 4.232 2.266s2.016 1.07 2.39 1.07c.373 0 1.818.928 3.212 2.063 1.393 1.134 2.917 2.063 3.385 2.063 1.81 0 2.54 1.604 2.514 5.531-.012 2.019-.135 3.782-.272 3.92-.137.136-3.002.331-6.365.432s-7.663.423-9.554.717-3.692.732-4.002.974c-.432.339-.555-.285-.532-2.702l.03-3.14 3.512-.048c1.932-.025 6.35-.208 9.818-.408 6.16-.354 6.304-.388 6.304-1.414 0-.63-.35-1.16-.875-1.327-.481-.153-.99-.58-1.131-.948-.141-.369-.668-.67-1.169-.67-.867 0-4.368-1.866-6.983-3.722-.67-.475-1.504-.863-1.855-.863-.945 0-6.93-3.13-7.548-3.948-.622-.82-.774-6.598-.174-6.598m-9.329 1.093c-.164.007-.28.19-.28.484 0 .394.206.716.459.716.252 0 .458-.194.458-.432 0-.237-.206-.559-.458-.714a.3.3 0 0 0-.179-.054m-62.775.741c.385 0 .601.336.512.797-.16.832-1.332 1.3-1.88.75-.435-.434.549-1.547 1.368-1.547m164.625.01c.95.03 2.43 1.69 2.151 2.417-.405 1.055-.925.986-1.78-.236-.756-1.078-.946-2.197-.37-2.18M99.3 306.57c.49.012 1.025.25 1.199.702.151.395.093.898-.13 1.117-.539.532-2.009-.325-2.009-1.171 0-.448.448-.66.94-.648m167.38.704c.612.029 1.357.494 1.58 1.197.186.586-.009 1.133-.558 1.567-.812.64-.805.694.187 1.398.568.402 1.032.912 1.032 1.133 0 .61-1.656.482-2.195-.17-.617-.746-1.186-3.82-.863-4.66.13-.342.45-.482.817-.465M98.632 309.37q.168.004.36.023c1.195.116 1.455.357 1.58 1.456.083.724.028 1.807-.123 2.407-.208.83-.574 1.082-1.526 1.054-1.837-.053-2.398-.387-2.398-1.428 0-.814.2-.892 1.605-.629 1.002.188 1.605.121 1.605-.178 0-.263-.361-.483-.803-.486-1.28-.01-2.007-.682-1.676-1.545.189-.492.595-.697 1.376-.674m131.596 1.026c-.165.007-.28.19-.28.484 0 .394.206.716.458.716s.459-.194.459-.432c0-.237-.207-.559-.459-.714a.3.3 0 0 0-.178-.054m-56.93.375c.87-.056 2.805.827 6.93 2.926 7.714 3.924 9.372 4.865 9.372 5.32 0 .205-.67.361-1.49.347-1.457-.025-3.047-.597-7.222-2.6a321 321 0 0 0-5.158-2.391c-2.622-1.187-3.094-1.576-3.094-2.548 0-.649.139-1.02.661-1.054m-.013 3.718c.156-.229 9.229 4.54 9.362 4.921.269.77-1.917.42-4.25-.684l-2.263-1.07-1.326 1.325c-1.481 1.482-1.75 1.564-2.538.776-.802-.802-.675-1.284.34-1.284.489 0 1.016-.206 1.172-.458s-.033-.459-.42-.459c-.546 0-.64-.333-.419-1.49.156-.82.31-1.529.342-1.577m94.593.1c.349.018.876.196 1.55.573.856.478 1.555 1.143 1.555 1.478 0 1.091-.998.98-2.49-.275-1.287-1.083-1.383-1.816-.615-1.776m-171.572.756c.302-.018.71.026 1.275.117 2.27.363 2.614.568 2.605 1.548-.012 1.386-.607 1.769-2.22 1.427-1.944-.412-2.946-1.382-2.536-2.452.161-.42.372-.613.876-.64m117.772 2.729c.654.056 1.657.519 1.657.888 0 .59-1.71.54-2.082-.061-.167-.27-.195-.597-.062-.73.09-.09.269-.116.487-.097m55.212.4c1.585 0 3.599 1.434 3.115 2.218-.44.71-.706.677-2.55-.312-2.068-1.109-2.304-1.907-.565-1.907m-8.738.455.746 4.787c.41 2.632.745 5.43.745 6.216s.226 2.327.501 3.422c.81 3.217.769 3.247-4.372 3.098-2.508-.073-4.83-.357-5.159-.63s-.599-1.368-.599-2.432c0-1.065-.387-3.063-.861-4.44s-1.01-3.421-1.19-4.542c-.181-1.12-.635-2.52-1.01-3.11-.374-.589-.587-1.163-.473-1.277s1.523-.3 3.131-.414c1.609-.114 4.19-.313 5.733-.442Zm-165.127.004c.37 0 1.393.301 2.275.67 1.296.541 1.565.87 1.401 1.719-.111.577-.428 2.184-.704 3.571s-.552 3.244-.613 4.127c-.11 1.58-.144 1.604-2.175 1.604-4.335 0-5.502-.238-5.502-1.118 0-1.228 1.11-1.946 2.477-1.603.745.187 1.19.108 1.19-.21 0-.28-.515-.507-1.146-.507-.84 0-1.146-.245-1.146-.917 0-1.41 3.185-7.336 3.943-7.336m147.517 1.221c2.81-.017 4.943.063 5.231.284.347.266.576 1.551.582 3.25.005 1.545.313 4.253.687 6.018.374 1.766.68 3.984.68 4.93v1.719l-3.783.007v-.001c-2.08.003-4.195.065-4.7.138-.504.072-3.544.062-6.757-.021-5.608-.145-5.849-.191-6.048-1.169-.3-1.468-.741-5.234-.931-7.938-.09-1.284-.381-3.121-.647-4.083-.265-.961-.394-1.891-.286-2.066.322-.521 9.788-1.03 15.972-1.068m-18.83.337c1.523-.028 1.615 1.198 1.856 5.927.157 3.07.411 6.208.566 6.974.2.993.039 1.674-.56 2.374-.75.877-1.4 1-6.053 1.14-3.908.117-5.269.01-5.436-.427-.123-.32-.718-.582-1.321-.582-.604 0-1.097-.172-1.097-.381s-.534-.667-1.186-1.016c-1.384-.74-2.872-3.198-1.92-3.172.997.028 2.443 1.058 4 2.85 1.3 1.497 2.774 2.266 2.774 1.449 0-.395-2.461-2.94-2.843-2.94-.622 0-4.952-4.269-4.952-4.883 0-1.172 1.044-.61 4.814 2.591 2.08 1.765 3.935 3.21 4.124 3.21.31 0-3.895-4.033-7.53-7.223-2.311-2.028-1.584-3.294.92-1.6.65.439 1.889 1.481 2.751 2.315.863.834 2.15 1.825 2.858 2.204l1.289.688-.769-1.173c-.422-.644-.935-1.172-1.14-1.172-.206 0-1.143-.726-2.083-1.612s-2.407-2.043-3.263-2.572-1.478-1.19-1.384-1.472c.287-.862 3.112-1.22 7.437-.944 2.27.145 5.01.06 6.088-.19.885-.205 1.551-.354 2.06-.363m-85.716 1.281c.296.002.647.05 1.063.131.974.187 4.95.396 8.837.465l7.068.125.039 7.618.04 7.619-3.44.06c-1.89.034-6.481.089-10.201.122l-6.763.06v-1.62c0-.891.413-3.109.917-4.929s.92-4.498.924-5.952c.007-2.857.238-3.71 1.516-3.699m131.503.11c.229-.012.544.026.97.106 1.591.302 2.636.93 2.636 1.585 0 .555-1.714.51-2.063-.055-.156-.252-.684-.459-1.173-.459-.49 0-.89-.305-.89-.677 0-.322.139-.48.52-.5m-57.488.27c-.867-.026-.19 1.233 1.152 2.14 1.814 1.226 2.49 1.33 1.675.257-.78-1.025-2.381-2.383-2.827-2.397m-47.111.508.079 3.524c.043 1.938.073 5.38.064 7.65h.001l-.015 4.126-2.242.044c-4.172.083-6.132-.264-6.23-1.102-.05-.427-.103-3.795-.115-7.485l-.023-6.71 4.24-.023Zm23.798.005c-.239 0-.48.039-.696.122-.573.22-.62.427-.212.919.552.664 2.327.47 2.327-.256 0-.452-.703-.786-1.419-.785m-8.035.641c-.462.051-.912.306-.993.726-.11.573.128.69 1.045.515.654-.124 1.11-.458 1.016-.742-.132-.396-.607-.55-1.068-.499m-6.747.272q-.762-.032-.763.596c0 .468.414.72 1.185.72 1.436 0 1.279-1.077-.19-1.293a2 2 0 0 0-.232-.024Zm95.932 1.342c.233-.009.633.056 1.26.167 2.915.518 3.373.744 3.373 1.671 0 .982.02.979-2.416.333-.951-.253-1.953-.877-2.227-1.389-.293-.549-.377-.768.01-.782m-81.5 2.273c3.614-.005 4.473.125 4.7.718.523 1.36.302 1.672-.982 1.38-1.198-.27-1.216-.25-.37.41.489.382 1.056.695 1.26.695s.37.31.37.688c0 .414-.41.678-1.03.666-1.074-.022-4.486-1.252-6.076-2.189-.504-.297-1.528-.76-2.276-1.026-2.255-.804-.514-1.334 4.405-1.342m-10.53.513c1.846-.098 7.914 2.395 9.99 4.35.58.546.487.63-.687.616-.748-.008-1.875-.311-2.506-.671s-1.502-.663-1.937-.672-1.133-.537-1.55-1.174c-.537-.82-1.017-1.077-1.638-.88-.876.279-2.21-.463-2.21-1.228 0-.216.197-.323.539-.341m11.7.404c-.329.003-.272.185.14.452.882.57 1.04.57.689 0-.156-.252-.53-.456-.83-.452m-15.449.005c.706 0 1.412.135 1.579.405.14.228 1.405 1.063 2.809 1.855 1.403.792 2.469 1.688 2.371 1.993-.33 1.005-2.366.715-5.262-.749-2.778-1.405-3.606-2.239-3.075-3.098.167-.27.872-.406 1.578-.406m97.3.12c.23 0 .536.037.918.12 2.574.566 4.658 1.411 4.843 1.965.288.865-2.683.599-4.598-.412-1.742-.92-2.16-1.665-1.162-1.672M90.082 331.38c.429-.009 1.05.029 1.921.106 4.419.39 4.986.488 4.984.861l-.002 1.032c0 .804-.79.866-2.01.157-.476-.276-1.904-.631-3.173-.789-1.31-.162-2.396-.552-2.512-.902-.102-.307.077-.45.792-.465m183.391.43c1.092.022 2.813.566 2.663 1.022-.099.3-.578.606-1.064.678-1.01.151-2.874-1.039-2.389-1.525.132-.131.426-.182.79-.175m-184.44 1.922q.456-.005 1.19.118c2.414.4 2.91.678 2.112 1.184-.907.574-2.874.494-3.51-.143q-1.153-1.148.209-1.16m15.086.335c-.112 0-.33.206-.486.458s-.064.459.203.459.485-.207.485-.459-.091-.458-.202-.458m105.34 1.375c.983 0 2.315 1.196 1.964 1.764-.394.638-.713.644-1.762.033-.937-.545-1.078-1.797-.203-1.797"/></g></g></svg>